<svg width="252" height="182" viewBox="0 0 252 182" fill="none" xmlns="http://www.w3.org/2000/svg">
<g clip-path="url(#clip0_380_757)">
<path d="M126.791 51.4268C126.531 53.0486 125.652 56.4722 122.812 56.3871C120.645 56.3245 118.975 54.1747 119.032 51.7121L119.85 18.1767L120.116 7.24011C120.116 7.24011 121.522 4.2144 122.92 17.7787V17.8288L126.806 49.9928C126.868 50.4687 126.863 50.9528 126.791 51.4268Z" fill="white"/>
<path d="M124.899 54.6829H120.727V64.8211H124.899V54.6829Z" fill="white"/>
<path d="M124.449 62.4136H121.24V66.8633H124.449V62.4136Z" fill="white"/>
<path d="M122.927 17.8312C121.467 17.3482 120.473 17.7161 119.843 18.1791L120.11 7.24255C120.11 7.24255 121.515 4.21685 122.914 17.7812L122.927 17.8312Z" fill="#023E73"/>
<path d="M124.899 57.7136V64.8211H120.727V57.8537C122.05 57.2025 123.543 57.1523 124.899 57.7136Z" fill="#023E73"/>
<path d="M134.721 80.31C133.551 79.3339 131.229 76.9364 132.54 74.0734C133.54 71.8886 135.972 71.1228 137.895 72.2615L164.066 87.7979L172.602 92.8632C172.602 92.8632 174.378 95.6162 163.033 91.1114L162.991 91.0964L135.842 80.9607C135.44 80.8119 135.062 80.5923 134.721 80.31Z" fill="white"/>
<path d="M126.785 68.2487L124.957 72.509L132.977 76.9533L134.806 72.693L126.785 68.2487Z" fill="white"/>
<path d="M127.057 73.1057L128.464 69.8284L124.944 67.8777L123.537 71.1551L127.057 73.1057Z" fill="white"/>
<path d="M162.992 91.0938C164.014 89.8125 164.159 88.6362 164.067 87.7979L172.603 92.8632C172.603 92.8632 174.378 95.6161 163.034 91.1114L162.992 91.0938Z" fill="#023E73"/>
<path d="M130.58 75.6225L124.956 72.5067L126.784 68.2522L132.291 71.3054C132.227 72.94 131.615 74.4847 130.58 75.6225Z" fill="#023E73"/>
<path d="M110.904 80.31C112.074 79.3339 114.396 76.9364 113.085 74.0734C112.085 71.8886 109.653 71.1228 107.73 72.2615L81.5586 87.7979L73.0228 92.8632C73.0228 92.8632 71.2473 95.6162 82.5917 91.1114L82.6336 91.0964L109.783 80.9632C110.185 80.8136 110.563 80.5932 110.904 80.31Z" fill="white"/>
<path d="M118.84 68.2478L110.819 72.6921L112.648 76.9524L120.669 72.5081L118.84 68.2478Z" fill="white"/>
<path d="M122.087 71.1538L120.68 67.8765L117.16 69.8271L118.567 73.1044L122.087 71.1538Z" fill="white"/>
<path d="M82.6336 91.0938C81.6115 89.8125 81.4661 88.6362 81.5586 87.7979L73.0228 92.8632C73.0228 92.8632 71.2473 95.6161 82.5917 91.1114L82.6336 91.0938Z" fill="#023E73"/>
<path d="M115.046 75.6225L120.669 72.5067L118.841 68.2522L113.334 71.3054C113.398 72.94 114.011 74.4847 115.046 75.6225Z" fill="#023E73"/>
<path d="M126.566 179.533H118.383L120.982 70.0342H123.967L126.566 179.533Z" fill="white"/>
<path d="M122.813 71.7835C124.319 71.7835 125.54 70.3963 125.54 68.6852C125.54 66.9741 124.319 65.5869 122.813 65.5869C121.306 65.5869 120.085 66.9741 120.085 68.6852C120.085 70.3963 121.306 71.7835 122.813 71.7835Z" fill="#023E73"/>
<path d="M187.385 45.6559C187.211 46.752 186.617 49.067 184.696 49.0094C183.989 48.9723 183.323 48.6194 182.843 48.0275C182.364 47.4355 182.11 46.6524 182.136 45.8486L182.691 23.1596L182.87 15.7617C182.87 15.7617 183.821 13.7146 184.768 22.8918V22.9243L187.396 44.6973C187.437 45.0155 187.433 45.339 187.385 45.6559Z" fill="white"/>
<path d="M186.105 47.8557H183.284V54.7155H186.105V47.8557Z" fill="white"/>
<path d="M185.801 53.0862H183.629V56.0969H185.801V53.0862Z" fill="white"/>
<path d="M184.773 22.9268C183.784 22.6014 183.112 22.8492 182.691 23.162L182.87 15.7642C182.87 15.7642 183.821 13.717 184.769 22.8942L184.773 22.9268Z" fill="#023E73"/>
<path d="M186.105 49.9053V54.7103H183.284V50.0029C184.179 49.5608 185.189 49.5259 186.105 49.9053Z" fill="#023E73"/>
<path d="M192.745 65.194C191.954 64.5358 190.381 62.9141 191.269 60.9771C191.608 60.2706 192.179 59.7453 192.858 59.5155C193.537 59.2858 194.268 59.3704 194.892 59.7508L212.598 70.2619L218.372 73.688C218.372 73.688 219.575 75.5575 211.9 72.5017H211.871L193.502 65.647C193.23 65.5425 192.974 65.3896 192.745 65.194Z" fill="white"/>
<path d="M187.382 57.0356L186.145 59.917L191.571 62.9241L192.808 60.0427L187.382 57.0356Z" fill="white"/>
<path d="M187.568 60.3229L188.52 58.105L186.138 56.7852L185.186 59.0031L187.568 60.3229Z" fill="white"/>
<path d="M211.878 72.4916C212.57 71.6257 212.669 70.8298 212.605 70.2617L218.379 73.6878C218.379 73.6878 219.582 75.5573 211.907 72.5016L211.878 72.4916Z" fill="#023E73"/>
<path d="M189.949 62.0257L186.136 59.9159L187.372 57.0354L191.101 59.1001C191.06 60.2065 190.648 61.2531 189.949 62.0257Z" fill="#023E73"/>
<path d="M176.638 65.194C177.429 64.5358 179.001 62.9141 178.114 60.9771C177.774 60.2706 177.203 59.7453 176.524 59.5155C175.845 59.2858 175.114 59.3704 174.49 59.7508L156.784 70.2619L151.01 73.688C151.01 73.688 149.808 75.5575 157.482 72.5017H157.511L175.88 65.647C176.152 65.5425 176.408 65.3896 176.638 65.194Z" fill="white"/>
<path d="M182.009 57.0366L176.583 60.0437L177.82 62.9251L183.246 59.918L182.009 57.0366Z" fill="white"/>
<path d="M184.204 59.0011L183.252 56.7832L180.87 58.103L181.822 60.3209L184.204 59.0011Z" fill="white"/>
<path d="M157.511 72.4916C156.819 71.6257 156.72 70.8298 156.784 70.2617L151.01 73.6878C151.01 73.6878 149.808 75.5573 157.482 72.5016L157.511 72.4916Z" fill="#023E73"/>
<path d="M179.44 62.0257L183.244 59.9159L182.008 57.0354L178.279 59.1001C178.323 60.2079 178.738 61.2547 179.44 62.0257Z" fill="#023E73"/>
<path d="M187.236 132.325L181.671 133.436L183.456 58.2441H185.476L187.236 132.325Z" fill="white"/>
<path d="M184.696 59.4278C185.715 59.4278 186.542 58.4889 186.542 57.3306C186.542 56.1724 185.715 55.2334 184.696 55.2334C183.676 55.2334 182.85 56.1724 182.85 57.3306C182.85 58.4889 183.676 59.4278 184.696 59.4278Z" fill="#023E73"/>
<path d="M61.1299 45.6559C60.9558 46.752 60.3611 49.067 58.4402 49.0094C57.7332 48.9723 57.0676 48.6194 56.5886 48.0273C56.1096 47.4353 55.8559 46.6522 55.8828 45.8486L56.4357 23.1596L56.6141 15.7617C56.6141 15.7617 57.5657 13.7146 58.5129 22.8918V22.9243L61.1431 44.6973C61.1818 45.0157 61.1774 45.339 61.1299 45.6559Z" fill="white"/>
<path d="M59.8501 47.8557H57.0283V54.7155H59.8501V47.8557Z" fill="white"/>
<path d="M59.546 53.0862H57.374V56.0969H59.546V53.0862Z" fill="white"/>
<path d="M58.5172 22.9268C57.5303 22.6014 56.8563 22.8492 56.4355 23.162L56.614 15.7642C56.614 15.7642 57.5656 13.717 58.5128 22.8942L58.5172 22.9268Z" fill="#023E73"/>
<path d="M59.8501 49.9053V54.7103H57.0283V50.0029C57.9232 49.5608 58.9332 49.5259 59.8501 49.9053Z" fill="#023E73"/>
<path d="M66.4958 65.1939C65.7049 64.5357 64.1344 62.9139 65.0221 60.9769C65.3609 60.2706 65.9318 59.7453 66.6103 59.5156C67.2887 59.2858 68.0196 59.3703 68.6435 59.7506L86.3496 70.2617L92.1253 73.6878C92.1253 73.6878 93.3258 75.5573 85.6513 72.5016H85.6226L67.2557 65.6468C66.983 65.5423 66.7265 65.3894 66.4958 65.1939Z" fill="white"/>
<path d="M61.1266 57.0363L59.8896 59.9177L65.3164 62.9248L66.5534 60.0434L61.1266 57.0363Z" fill="white"/>
<path d="M61.3115 60.3221L62.2637 58.1042L59.8819 56.7845L58.9298 59.0023L61.3115 60.3221Z" fill="white"/>
<path d="M85.6228 72.4916C86.3145 71.6257 86.4136 70.8298 86.3497 70.2617L92.1255 73.6878C92.1255 73.6878 93.326 75.5573 85.6514 72.5016L85.6228 72.4916Z" fill="#023E73"/>
<path d="M63.6939 62.0257L59.8896 59.9159L61.1276 57.0354L64.8548 59.1001C64.8117 60.2082 64.3962 61.2553 63.6939 62.0257Z" fill="#023E73"/>
<path d="M50.3824 65.194C51.1754 64.5358 52.746 62.9141 51.8582 60.9771C51.519 60.2706 50.9477 59.7453 50.2689 59.5155C49.59 59.2858 48.8588 59.3704 48.2346 59.7508L30.5285 70.2619L24.755 73.688C24.755 73.688 23.5523 75.5575 31.2268 72.5017H31.2555L49.6246 65.647C49.8967 65.5425 50.1524 65.3896 50.3824 65.194Z" fill="white"/>
<path d="M55.753 57.0359L50.3262 60.043L51.5632 62.9244L56.99 59.9173L55.753 57.0359Z" fill="white"/>
<path d="M57.9502 59.0028L56.998 56.7849L54.6163 58.1047L55.5684 60.3226L57.9502 59.0028Z" fill="white"/>
<path d="M31.2555 72.4916C30.566 71.6257 30.4669 70.8298 30.5285 70.2617L24.755 73.6878C24.755 73.6878 23.5523 75.5573 31.2268 72.5016L31.2555 72.4916Z" fill="#023E73"/>
<path d="M53.1843 62.0257L56.9885 59.9159L55.7528 57.0354L52.0234 59.1001C52.0685 60.2076 52.4836 61.2539 53.1843 62.0257Z" fill="#023E73"/>
<path d="M60.98 132.325H55.4421L57.2022 58.2441H59.2199L60.98 132.325Z" fill="white"/>
<path d="M58.4402 59.4278C59.4597 59.4278 60.2861 58.4889 60.2861 57.3306C60.2861 56.1724 59.4597 55.2334 58.4402 55.2334C57.4207 55.2334 56.5942 56.1724 56.5942 57.3306C56.5942 58.4889 57.4207 59.4278 58.4402 59.4278Z" fill="#023E73"/>
<path d="M245.103 152.564C243.218 160.377 239.126 167.27 233.457 172.184C227.788 177.098 220.855 179.759 213.724 179.76H47.8382C40.1714 179.755 32.6558 177.336 26.1261 172.771C19.5965 168.206 14.3083 161.674 10.8489 153.9C10.8489 153.9 34.8924 116.115 97.3351 140.801C149.176 161.296 173.087 141.915 179.72 134.743C180.438 133.97 181.286 133.37 182.214 132.979C183.141 132.589 184.129 132.415 185.117 132.47C197.82 133.153 241.825 136.652 245.11 152.559L245.103 152.564Z" fill="#464646"/>
<path opacity="0.1" d="M46.0672 181.998C60.8996 181.998 72.9237 180.394 72.9237 178.416C72.9237 176.438 60.8996 174.835 46.0672 174.835C31.2348 174.835 19.2107 176.438 19.2107 178.416C19.2107 180.394 31.2348 181.998 46.0672 181.998Z" fill="#023E73"/>
<path d="M59.5107 175.22C59.5107 175.22 57.7683 174.988 56.6339 174.027L56.548 173.949C56.6166 173.832 56.6665 173.703 56.6956 173.566C56.5737 173.297 56.5096 172.998 56.5083 172.695C56.5119 172.411 56.4607 172.129 56.3585 171.869V170.463C56.3585 170.463 55.9818 170.007 55.9444 168.849C55.9069 167.69 55.8695 161.979 55.8695 161.979C55.8114 161.68 55.7987 161.372 55.8321 161.068C55.8695 160.407 55.8695 160.159 55.8695 160.159C55.7463 159.775 55.7077 159.363 55.7572 158.958C55.8695 158.458 55.4928 157.882 55.4928 157.882L56.0567 154.739C56.0567 154.739 56.3695 143.88 55.4598 140.606V140.586C55.4598 140.586 55.4598 140.559 55.4598 140.546C55.5369 138.434 54.409 134.918 55.0479 132.478C55.6867 130.038 55.7616 129.497 55.7616 129.497C55.7616 129.497 52.9464 121.469 52.2371 119.567C51.7459 118.255 51.237 116.814 50.7348 115.993C50.6907 115.921 50.6467 115.853 50.6026 115.79C50.5784 115.755 50.5542 115.72 50.5299 115.69C50.6834 115.399 50.7761 115.072 50.8009 114.734C50.8405 114.143 50.7656 113.463 51.1445 113.045C51.2891 112.91 51.4447 112.792 51.6093 112.692C51.8994 112.475 52.1305 112.17 52.2764 111.812C52.4224 111.454 52.4774 111.056 52.4353 110.665C52.356 110.041 52.041 109.523 51.682 109.02C51.8049 108.257 51.7559 107.471 51.5394 106.735C51.323 105.999 50.9461 105.337 50.444 104.811C50.444 104.733 50.444 104.653 50.444 104.576C50.4542 104.002 50.2995 103.441 50.0035 102.976L50.1092 103.062C50.0497 103.002 49.9924 102.944 49.9308 102.886C49.8438 102.787 49.7444 102.702 49.6356 102.636C48.8004 101.988 47.824 101.613 46.8137 101.553C45.8034 101.494 44.7982 101.751 43.9083 102.298C43.4628 102.569 43.08 102.956 42.7915 103.427C42.2033 104.458 42.3509 105.792 42.0469 106.963C41.7518 108.082 41.0557 109.008 40.4786 109.984C39.9014 110.96 39.419 112.116 39.6371 113.257C39.7935 114.086 40.3133 114.829 40.2979 115.677C40.2721 116.122 40.1105 116.542 39.841 116.866C39.5716 117.189 39.2112 117.395 38.8221 117.449H38.8022C38.7293 117.462 38.6557 117.469 38.5819 117.469C39.2824 118.017 40.1525 118.22 41.005 118.348C40.9874 118.423 40.9698 118.498 40.9544 118.575C40.2649 121.531 39.6503 125.285 39.6503 125.285C39.6503 125.285 40.0622 129.089 39.1987 132.07C38.3352 135.05 38.4476 141.174 38.4476 141.174C38.4476 141.174 40.8508 139.765 41.0006 140.674C41.1504 141.582 41.0006 141.833 41.0006 141.833C41.0006 141.833 41.4918 142.115 42.069 142.366L42.0447 142.729L41.939 144.355C41.8986 144.696 41.9444 145.044 42.0712 145.356C42.2782 145.812 42.0712 147.053 42.0712 147.053C42.0712 147.053 41.895 147.178 42.0712 147.759C42.2474 148.339 41.9324 149.165 41.9324 149.165C41.9324 149.165 41.7121 152.269 41.6835 152.919C41.6549 153.57 40.9323 155.444 40.9323 155.444C40.9323 155.444 41.5711 156.353 40.9323 156.478C40.2935 156.603 40.2186 157.729 40.2186 157.729C40.2186 157.729 39.4675 158.433 39.4675 158.68C39.4675 158.68 36.0884 162.572 35.2998 168.984C35.2998 168.984 34.5112 169.812 34.6235 170.598C34.6874 171.043 34.5596 171.196 34.4363 171.246C34.5751 171.266 34.7271 171.369 34.6566 171.747C34.5442 172.407 34.2446 173.816 34.2446 173.816H34.2975C33.6829 174.625 32.7842 175.979 32.6476 177.167C32.6476 177.218 32.6432 177.268 32.6344 177.318L32.2952 178.186L35.2623 179.688L35.5245 179.232C35.5245 179.232 36.8461 180.929 38.3418 181.299C38.6003 181.363 38.8638 181.396 39.1282 181.397C39.963 181.38 40.7883 181.193 41.5645 180.844C41.5645 180.844 42.6527 179.315 39.8353 179.024C39.8353 179.024 38.1854 176.872 38.3352 175.961C38.3918 175.578 38.4263 175.191 38.4388 174.802C38.4388 174.717 38.4388 174.634 38.4388 174.552L38.6304 174.585L38.6657 173.891C38.748 173.774 38.7882 173.626 38.778 173.476C38.778 173.188 38.5577 173.146 38.778 172.976C38.9983 172.805 38.9983 172.976 38.9983 172.563C38.9983 172.15 38.8485 172.272 39.1855 171.859C39.5225 171.446 39.1481 170.701 39.1481 170.701C39.1481 170.701 39.9367 170.037 39.8992 169.169C39.8618 168.301 42.4148 162.797 42.9391 162.59C43.4633 162.382 43.503 161.306 43.503 161.306C43.503 161.306 44.2167 161.471 44.4414 161.306C44.6661 161.141 45.3798 159.859 45.3798 159.859C45.3798 159.859 48.2434 151.665 48.2721 148.562L48.4593 147.859C48.4593 147.859 49.5497 149.473 49.3977 150.632C49.2457 151.791 50.2303 152.617 50.2303 152.617V156.135C50.3404 156.748 50.4009 157.372 50.411 157.997C50.3735 158.575 50.8515 159.156 50.6709 159.651C50.4903 160.147 50.6709 161.018 50.6709 161.018C50.6709 161.018 50.6312 162.177 50.6709 162.507C50.7105 162.837 50.5233 166.644 51.5014 168.301C51.5014 168.301 51.9133 169.499 51.5014 170.285C51.0894 171.071 51.8758 171.859 51.8758 171.859C51.8758 171.859 51.389 172.768 51.8758 173.431C52.1549 173.85 52.2804 174.376 52.2261 174.898C52.03 175.738 51.8846 176.842 52.2129 177.61V177.628L52.301 178.809L55.1778 178.559V177.898C55.1778 177.898 57.1427 178.491 58.9732 178.169C59.9601 177.996 60.9073 177.555 61.4866 176.614C61.5021 176.627 62.6651 174.352 59.5107 175.22Z" fill="url(#paint0_linear_380_757)"/>
<path d="M60.9691 176.647C60.4095 177.585 59.4954 178.023 58.546 178.196C56.7837 178.516 54.8827 177.926 54.8827 177.926V178.591L52.105 178.842L52.0191 177.665V177.645C51.6975 176.869 51.8451 175.748 52.0389 174.905C52.132 174.507 52.2468 174.116 52.3825 173.734C52.3825 173.734 54.7748 171.426 55.5722 173.158C55.7452 173.516 55.9851 173.827 56.2749 174.069C57.3763 175.025 59.0526 175.258 59.0526 175.258C62.0925 174.382 60.9691 176.647 60.9691 176.647Z" fill="#2B1B05"/>
<path opacity="0.1" d="M53.572 174.382C53.572 174.382 53.572 176.524 54.9488 176.484C56.3255 176.444 56.5105 175.631 56.0744 175.08C55.7784 174.69 55.5227 174.263 55.3122 173.806L53.572 174.382Z" fill="black"/>
<path d="M41.7166 180.844C40.9669 181.192 40.167 181.378 39.3574 181.394C39.1019 181.393 38.8472 181.361 38.5974 181.299C37.148 180.926 35.8792 179.237 35.8792 179.237L35.6258 179.693L32.7622 178.208L33.086 177.34L33.0992 177.192C33.2314 176.009 34.0993 174.66 34.6941 173.854C35.0179 173.416 35.2624 173.141 35.2624 173.141L38.7076 173.716C38.7076 173.716 38.7208 174.217 38.7076 174.827C38.696 175.214 38.6621 175.599 38.6062 175.981C38.463 176.887 40.0557 179.029 40.0557 179.029C42.7673 179.325 41.7166 180.844 41.7166 180.844Z" fill="#2B1B05"/>
<path d="M34.8261 171.279C34.768 171.302 34.7059 171.308 34.6455 171.295C34.7045 171.277 34.7656 171.272 34.8261 171.279Z" fill="#120D23"/>
<path opacity="0.1" d="M38.7074 173.724C38.7074 173.724 38.7207 174.224 38.7074 174.835L34.6543 174.084C34.6543 174.084 34.6741 173.997 34.7028 173.851C35.0266 173.413 35.2711 173.138 35.2711 173.138L38.7074 173.724Z" fill="black"/>
<path opacity="0.1" d="M56.2683 174.059C55.6559 175.668 52.0125 175.288 52.0125 175.288C52.0305 175.158 52.0372 175.026 52.0323 174.895C52.1254 174.497 52.2402 174.106 52.3759 173.724C52.3759 173.724 54.7682 171.416 55.5656 173.148C55.7386 173.506 55.9784 173.817 56.2683 174.059Z" fill="black"/>
<path d="M56.3277 173.601C55.9664 175.453 52.0124 175.043 52.0124 175.043C52.0883 174.492 51.9713 173.93 51.6864 173.476C51.215 172.818 51.6864 171.912 51.6864 171.912C51.6864 171.912 50.9242 171.129 51.3251 170.345C51.726 169.562 51.3251 168.368 51.3251 168.368C50.3801 166.721 50.5629 162.93 50.5233 162.612C50.4836 162.294 50.5233 161.131 50.5233 161.131C50.5233 161.131 50.3449 160.265 50.5233 159.769C50.7017 159.274 50.2369 158.698 50.2722 158.122C50.262 157.5 50.2037 156.879 50.0981 156.268V152.764C50.0981 152.764 49.1487 151.941 49.2941 150.787C49.4395 149.633 48.3866 148.034 48.3866 148.034L48.2059 148.735C48.1707 151.823 45.415 159.979 45.415 159.979C45.415 159.979 44.7255 161.258 44.5074 161.423C44.2894 161.589 43.6021 161.423 43.6021 161.423C43.6021 161.423 43.5646 162.495 43.058 162.7C42.5514 162.905 40.0842 168.383 40.1217 169.249C40.1591 170.115 39.3947 170.773 39.3947 170.773C39.3947 170.773 39.7582 171.524 39.4322 171.927C39.1062 172.33 39.2494 172.215 39.2494 172.628C39.2494 173.041 39.2494 172.878 39.0291 173.038C38.8088 173.198 39.0291 173.246 39.0291 173.539C39.0394 173.686 39 173.833 38.9189 173.949L38.8859 174.642L34.6411 173.869C34.6411 173.869 34.9319 172.468 35.0398 171.807C35.1037 171.421 34.9561 171.319 34.8195 171.306C34.9407 171.256 35.0641 171.104 35.0024 170.663C34.8922 169.88 35.6632 169.056 35.6632 169.056C36.4254 162.67 39.6877 158.796 39.6877 158.796C39.6877 158.545 40.4124 157.85 40.4124 157.85C40.4124 157.85 40.4851 156.736 41.1019 156.613C41.7187 156.491 41.1019 155.582 41.1019 155.582C41.1019 155.582 41.7914 153.73 41.8266 153.08C41.8619 152.429 42.0667 149.326 42.0667 149.326C42.0667 149.326 42.3707 148.502 42.2011 147.927C42.0315 147.351 42.2011 147.226 42.2011 147.226C42.2011 147.226 42.406 145.99 42.2011 145.537C42.0796 145.227 42.0354 144.885 42.0734 144.548L42.1769 142.926L42.3267 140.511C42.3267 140.511 53.6072 138.299 54.8496 140.068C54.984 140.287 55.0832 140.531 55.1425 140.789C56.0237 144.042 55.7197 154.856 55.7197 154.856L55.1756 157.987C55.1756 157.987 55.5391 158.565 55.4311 159.058C55.3825 159.461 55.4195 159.871 55.5391 160.255C55.5391 160.255 55.539 160.505 55.5016 161.161C55.4699 161.463 55.4826 161.769 55.5391 162.067C55.5391 162.067 55.5743 167.75 55.6117 168.904C55.6492 170.057 56.0104 170.51 56.0104 170.51V171.912C56.1083 172.172 56.1571 172.453 56.1536 172.735C56.1519 173.035 56.2115 173.332 56.3277 173.601Z" fill="#120D23"/>
<path opacity="0.1" d="M39.3574 181.399C39.1018 181.398 38.8472 181.366 38.5974 181.304C37.148 180.931 35.8792 179.242 35.8792 179.242L35.6258 179.698L32.7622 178.213L33.086 177.34L33.0992 177.192L36.0598 178.907C36.0598 178.907 38.4234 180.193 39.3574 181.399Z" fill="black"/>
<path opacity="0.1" d="M58.5415 178.196C56.7793 178.516 54.8783 177.926 54.8783 177.926V178.591L52.1006 178.842L52.0146 177.665C52.8958 177.683 54.3122 177.7 54.9289 177.645C56.1495 177.643 57.3647 177.828 58.5415 178.196Z" fill="black"/>
<path opacity="0.1" d="M36.2448 170.217C36.3896 170.203 36.5354 170.224 36.6721 170.28C36.8151 170.377 36.9507 170.488 37.0775 170.61C37.1726 170.668 37.2626 170.736 37.3462 170.813C37.4519 170.931 37.496 171.106 37.6017 171.224C37.7956 171.441 38.115 171.391 38.3727 171.496C38.4013 171.496 38.4322 171.524 38.4366 171.556C38.441 171.589 38.4167 171.616 38.3925 171.636C38.3288 171.678 38.2566 171.699 38.1833 171.699C38.1099 171.699 38.0378 171.678 37.974 171.636C37.8462 171.554 37.7285 171.453 37.6237 171.336C37.4225 171.133 37.1923 170.971 36.9431 170.856C36.6016 170.703 36.0069 170.66 35.791 170.28C35.8923 170.192 36.1126 170.22 36.2448 170.217Z" fill="black"/>
<path opacity="0.1" d="M35.9541 171.083C36.0308 171.108 36.1047 171.142 36.1744 171.186L36.5467 171.399C36.2823 171.419 36.0185 171.352 35.7867 171.206C35.7045 171.168 35.6243 171.125 35.5466 171.076C35.6819 171.053 35.8196 171.055 35.9541 171.083Z" fill="black"/>
<path opacity="0.1" d="M36.4453 171.804C36.5266 171.8 36.608 171.808 36.6876 171.827C36.8279 171.883 36.9578 171.967 37.0709 172.077C37.3425 172.326 37.6822 172.46 38.0313 172.455C37.9627 172.491 37.8865 172.506 37.8111 172.497H37.0313C36.8284 172.513 36.6262 172.459 36.4497 172.345C36.3176 172.272 35.7713 172.095 35.7669 171.887C35.7625 171.679 36.3132 171.804 36.4453 171.804Z" fill="black"/>
<path opacity="0.1" d="M54.1887 172.855C54.4271 172.885 54.6673 172.893 54.9068 172.878C55.159 172.87 55.4044 172.783 55.6161 172.628C55.8254 172.445 55.7813 172.257 55.5148 172.245C55.267 172.258 55.0237 172.326 54.7989 172.445C54.6826 172.498 54.5706 172.562 54.4641 172.638C54.409 172.665 54.2284 172.858 54.1887 172.855Z" fill="black"/>
<path opacity="0.1" d="M55.0568 173.306C55.0348 173.406 54.9423 173.461 54.8586 173.499C54.6535 173.587 54.4384 173.641 54.2198 173.659C54.1647 173.659 54.0105 173.659 54.0303 173.561C54.0501 173.464 54.2792 173.494 54.3343 173.486C54.5784 173.444 54.8198 173.384 55.0568 173.306Z" fill="black"/>
<path opacity="0.1" d="M52.8803 173.143C53.1849 173.103 53.4929 173.172 53.7614 173.341C53.7695 173.347 53.7757 173.356 53.779 173.366C53.7806 173.369 53.7814 173.373 53.7814 173.377C53.7814 173.381 53.7806 173.385 53.779 173.388C53.751 173.448 53.708 173.497 53.6554 173.529C53.6029 173.561 53.5432 173.575 53.4838 173.569C53.3661 173.553 53.2506 173.52 53.1402 173.471C52.9567 173.404 52.7647 173.371 52.5719 173.373C52.4861 173.382 52.3999 173.382 52.3141 173.373C52.0586 173.323 52.1423 173.206 52.3384 173.181C52.5183 173.157 52.6992 173.145 52.8803 173.143Z" fill="black"/>
<path opacity="0.1" d="M42.9194 156.956C42.5559 156.667 42.1251 156.507 41.6814 156.496C42.1307 156.464 42.5736 156.629 42.9194 156.956Z" fill="black"/>
<path opacity="0.1" d="M42.5801 155.294C42.9069 155.296 43.2269 155.4 43.5053 155.595L43.1705 155.489C42.969 155.417 42.7617 155.367 42.5515 155.342C42.4304 155.329 42.3092 155.342 42.188 155.327C42.0669 155.312 41.9127 155.287 41.7761 155.282C42.0427 155.297 42.3114 155.279 42.5801 155.294Z" fill="black"/>
<path opacity="0.1" d="M43.6705 156.085C43.7718 156.108 43.8908 156.158 43.9128 156.275C43.9128 156.205 43.1947 155.975 43.1066 155.942C42.959 155.882 42.4854 155.647 42.3774 155.81C42.7938 155.937 43.2431 155.985 43.6705 156.085Z" fill="black"/>
<path opacity="0.1" d="M44.6794 152.426C45.1556 152.244 45.5848 151.931 45.9284 151.515C45.9247 151.701 45.8808 151.882 45.8005 152.044C45.7202 152.205 45.606 152.342 45.468 152.441C45.1888 152.633 44.8802 152.764 44.5583 152.827C44.2367 152.889 43.9231 152.996 43.6243 153.144C43.4811 153.227 43.0339 153.707 42.893 153.682C42.7145 153.652 42.9987 153.332 43.0648 153.275C43.5362 152.857 44.1331 152.671 44.6794 152.426Z" fill="black"/>
<path opacity="0.1" d="M53.5633 157.769C53.4091 157.709 51.5367 158.122 51.6513 157.709C51.7218 157.459 52.3297 157.549 52.4817 157.557C52.8494 157.568 53.2136 157.64 53.5633 157.769Z" fill="black"/>
<path d="M51.5454 108.517C51.5453 109.601 51.2153 110.651 50.6113 111.49C50.0073 112.329 49.1664 112.904 48.2315 113.119C47.2965 113.334 46.325 113.174 45.4817 112.668C44.6384 112.161 43.9753 111.339 43.6049 110.34C43.2344 109.342 43.1795 108.228 43.4493 107.189C43.7192 106.149 44.2972 105.248 45.0853 104.638C45.8735 104.027 46.8232 103.745 47.7735 103.84C48.7237 103.934 49.6159 104.4 50.2986 105.156C50.6947 105.592 51.0093 106.115 51.2235 106.692C51.4377 107.27 51.5472 107.891 51.5454 108.517Z" fill="#FBBEBE"/>
<path d="M49.5474 110.452C49.5474 110.452 48.2059 114.901 48.9681 115.807C49.7303 116.713 43.4919 117.249 43.4919 117.249C43.4919 117.249 46.1023 111.936 45.8489 110.617C45.5956 109.298 49.5474 110.452 49.5474 110.452Z" stroke="#6C63FF" stroke-miterlimit="10"/>
<path opacity="0.1" d="M55.1338 140.801C55.1338 140.909 55.1338 141.012 55.1338 141.112C55.0612 143.214 51.7614 147.456 50.9992 146.755C50.237 146.054 45.0516 144.653 45.0516 144.653C45.0516 144.653 44.2895 143.294 43.4921 143.294C43.0393 143.249 42.5963 143.119 42.1814 142.909L42.3312 140.494C42.3312 140.494 53.6073 138.299 54.8497 140.068C54.9822 140.291 55.0785 140.54 55.1338 140.801Z" fill="black"/>
<path d="M55.1315 140.729C55.094 141.783 54.2504 143.372 53.3186 144.608C52.3868 145.844 51.3779 146.72 50.9968 146.36C50.718 146.153 50.4156 145.991 50.0981 145.877C48.3821 145.159 45.0515 144.258 45.0515 144.258C45.0515 144.258 44.2893 142.899 43.4919 142.899C42.6945 142.899 41.1724 141.993 41.1724 141.993C41.1724 141.993 41.3178 141.742 41.1724 140.839C41.027 139.936 38.7074 141.34 38.7074 141.34C38.7074 141.34 38.5973 135.243 39.4322 132.275C40.267 129.307 39.8727 125.518 39.8727 125.518C39.8727 125.518 40.4697 121.784 41.1173 118.833C41.5072 117.064 41.9169 115.58 42.2297 115.345C43.0646 114.726 47.4151 115.345 47.4151 115.345C47.4151 115.345 49.228 115.385 49.9175 115.595C50.1316 115.69 50.3142 115.859 50.4395 116.078C50.4814 116.143 50.5254 116.21 50.5673 116.283C51.0519 117.109 51.5453 118.535 52.0189 119.839C52.7084 121.734 55.4289 129.725 55.4289 129.725C55.4289 129.725 55.3562 130.26 54.7394 132.69C54.1226 135.12 55.2042 138.629 55.1315 140.729Z" fill="#464646"/>
<path d="M52.0124 143.159L53.3186 144.605C53.3186 144.605 54.5148 149.295 52.9552 148.885C51.3956 148.475 50.0916 145.882 50.0916 145.882L52.0124 143.159Z" fill="#FBBEBE"/>
<path opacity="0.1" d="M55.3123 130.1C52.2283 130.06 51.4331 125.157 51.4331 125.157C51.4331 125.157 51.2128 120.297 50.8163 119.401C50.5961 118.901 50.4969 117.67 50.4529 116.668C50.9375 117.494 51.4287 118.921 51.9045 120.225C52.594 122.109 55.3123 130.1 55.3123 130.1Z" fill="black"/>
<path d="M55.4224 129.73C52.3384 129.69 51.5454 124.784 51.5454 124.784C51.5454 124.784 51.3252 119.924 50.9287 119.028C50.7084 118.528 50.6092 117.296 50.5652 116.295C51.0498 117.121 51.5432 118.548 52.0168 119.852C52.7019 121.739 55.4224 129.73 55.4224 129.73Z" fill="#2B4265"/>
<path opacity="0.1" d="M49.9021 117.637C49.9021 117.637 48.9945 114.837 47.5076 117.637C46.0207 120.437 45.9855 123.981 45.9855 123.981L45.7322 131.724C45.7322 131.724 46.2036 132.755 46.186 133.331C46.1683 133.907 47.0671 135.556 47.0671 135.556C47.0671 135.556 47.2874 138.809 48.1178 139.345L48.9152 142.023C48.9152 142.023 48.9527 143.795 49.4968 144.495C50.0408 145.196 49.7545 146.277 49.7545 146.277L52.9772 144.996C52.9772 144.996 52.6137 145.144 52.9772 144.037C53.3406 142.931 52.7569 141.487 52.7569 141.487C52.7569 141.487 50.6907 136.379 50.4374 135.639C50.184 134.898 49.8206 134.032 49.966 133.166C50.1113 132.3 49.9946 123.115 50.1862 121.716C50.3779 120.317 49.9021 117.637 49.9021 117.637Z" fill="black"/>
<path d="M50.237 117.249C50.237 117.249 49.3295 114.449 47.8426 117.249C46.3557 120.05 46.3205 123.593 46.3205 123.593L46.0671 131.336C46.0671 131.336 46.5385 132.368 46.5209 132.943C46.5033 133.519 47.402 135.168 47.402 135.168C47.402 135.168 47.6223 138.421 48.4528 138.957L49.2502 141.635C49.2502 141.635 49.2876 143.407 49.8317 144.107C50.3758 144.808 50.0916 145.889 50.0916 145.889L53.3121 144.605C53.3121 144.605 52.9487 144.756 53.3121 143.649C53.6756 142.543 53.0919 141.099 53.0919 141.099C53.0919 141.099 51.0256 135.991 50.7723 135.251C50.519 134.51 50.1555 133.644 50.3009 132.778C50.4463 131.912 50.3318 122.727 50.5212 121.326C50.7106 119.924 50.237 117.249 50.237 117.249Z" fill="#55382D"/>
<path opacity="0.1" d="M50.2988 141.472C50.4359 141.491 50.5692 141.535 50.6931 141.605C50.7922 141.665 50.8781 141.752 50.975 141.815C51.0888 141.888 51.2167 141.927 51.3473 141.93C51.2019 141.93 51.0565 141.948 50.9067 141.95C50.8166 141.955 50.7264 141.943 50.6402 141.913C50.561 141.867 50.487 141.811 50.4199 141.745C50.3316 141.67 50.2344 141.609 50.1313 141.565C50.0542 141.527 49.9705 141.515 49.9375 141.425C50.0589 141.429 50.1797 141.445 50.2988 141.472Z" fill="black"/>
<path opacity="0.1" d="M51.5256 142.578C51.6621 142.578 51.7987 142.543 51.9375 142.533C52.137 142.525 52.3368 142.537 52.5344 142.568C52.2431 142.734 51.9155 142.8 51.5916 142.759C51.4985 142.731 51.4007 142.731 51.3075 142.759C51.2062 142.806 50.9132 143.184 50.8868 142.849C50.8603 142.513 51.3582 142.586 51.5256 142.578Z" fill="black"/>
<path opacity="0.1" d="M49.8582 103.575L49.3428 103.139C49.3992 103.161 49.4537 103.189 49.5058 103.222C49.6157 103.291 49.7153 103.38 49.801 103.485C49.8582 103.54 49.9155 103.6 49.9706 103.657L49.8582 103.575Z" fill="black"/>
<path opacity="0.1" d="M50.444 116.083C50.3495 116.329 50.197 116.54 50.0035 116.693C49.8877 116.784 49.7549 116.842 49.6158 116.864C49.4183 116.884 49.2192 116.86 49.0299 116.794C48.7891 116.724 48.5516 116.641 48.3183 116.543C47.8625 116.33 47.3953 116.149 46.9196 116.003C46.1948 115.815 45.3512 115.883 44.8313 116.483C44.3753 117.011 44.263 117.832 43.807 118.36C43.1968 119.066 42.1968 119.023 41.3311 118.886L41.1284 118.853C41.5183 117.084 41.928 115.6 42.2408 115.365C43.0757 114.746 47.4262 115.365 47.4262 115.365C47.4262 115.365 49.2391 115.405 49.9286 115.615C50.1385 115.707 50.3184 115.871 50.444 116.083Z" fill="black"/>
<path opacity="0.1" d="M43.2761 108.517C43.2761 107.594 43.5158 106.691 43.9653 105.921C44.4149 105.151 45.0542 104.549 45.8034 104.191C46.5525 103.832 47.3782 103.732 48.177 103.904C48.9758 104.076 49.7123 104.511 50.2942 105.156C50.3075 105.975 50.1511 106.813 50.3537 107.601C50.5409 108.335 51.0145 108.925 51.4419 109.536C51.2204 110.664 50.6404 111.66 49.813 112.332C48.9856 113.005 47.9689 113.307 46.9576 113.181C45.9463 113.055 45.0115 112.509 44.3322 111.649C43.6529 110.788 43.2769 109.673 43.2761 108.517Z" fill="black"/>
<path d="M49.9594 103.412C49.1574 102.586 48.147 102.067 47.0713 101.93C45.9956 101.793 44.9091 102.043 43.9656 102.646C43.5321 102.917 43.162 103.303 42.8863 103.77C42.3179 104.798 42.4633 106.125 42.1659 107.291C41.884 108.405 41.2099 109.326 40.6526 110.294C40.0953 111.263 39.6305 112.419 39.8398 113.548C39.9918 114.373 40.5006 115.114 40.483 115.958C40.4627 116.427 40.2876 116.87 39.9924 117.2C39.6973 117.529 39.3038 117.72 38.8904 117.734C39.5909 118.298 40.4654 118.485 41.3135 118.623C42.1615 118.761 43.177 118.803 43.7894 118.095C44.2454 117.569 44.3577 116.746 44.8137 116.22C45.3336 115.617 46.1772 115.55 46.902 115.74C47.6267 115.93 48.2941 116.328 49.0122 116.541C49.202 116.605 49.4009 116.628 49.5982 116.608C50.2172 116.513 50.5762 115.732 50.6247 115.027C50.6643 114.438 50.5894 113.76 50.9573 113.345C51.0938 113.211 51.2414 113.093 51.3979 112.992C51.6802 112.771 51.9036 112.465 52.0438 112.11C52.184 111.754 52.2357 111.361 52.1931 110.975C52.0235 109.578 50.693 108.707 50.3449 107.353C50.1423 106.568 50.2987 105.729 50.2854 104.911C50.2722 104.093 50.0013 103.159 49.3228 102.884" fill="#120D23"/>
<path opacity="0.1" d="M52.1357 110.982C51.9639 109.586 50.6334 108.715 50.2854 107.361C50.0827 106.575 50.2391 105.737 50.2281 104.919C50.2339 104.348 50.0796 103.791 49.7875 103.327L49.8889 103.412C49.8345 103.352 49.7773 103.294 49.717 103.239C49.6343 103.14 49.5385 103.055 49.4329 102.989C49.3712 102.936 49.3073 102.889 49.2456 102.841L49.3448 102.944L49.2434 102.859C49.5358 103.323 49.6901 103.88 49.684 104.451C49.684 105.266 49.5386 106.107 49.7413 106.893C50.0893 108.247 51.4198 109.118 51.5916 110.514C51.6335 110.901 51.5813 111.294 51.4407 111.649C51.3001 112.005 51.0766 112.31 50.7942 112.532C50.6376 112.633 50.49 112.751 50.3537 112.884C49.988 113.3 50.0607 113.978 50.021 114.566C49.9726 115.272 49.6135 116.053 48.9967 116.148C48.7987 116.168 48.5991 116.145 48.4086 116.08C47.6905 115.868 47.023 115.467 46.2983 115.279C45.5736 115.092 44.7321 115.157 44.2101 115.76C43.7541 116.286 43.6417 117.106 43.1858 117.634C42.5756 118.343 41.5755 118.298 40.712 118.163C40.1443 118.089 39.5856 117.943 39.0467 117.727C38.9738 117.74 38.9002 117.747 38.8264 117.747C39.5269 118.31 40.4014 118.498 41.2495 118.636C42.0976 118.773 43.1131 118.816 43.7232 118.107C44.1792 117.582 44.2916 116.759 44.7475 116.233C45.2696 115.63 46.1133 115.562 46.8358 115.752C47.5583 115.943 48.228 116.341 48.9461 116.553C49.1366 116.618 49.3362 116.641 49.5342 116.621C50.151 116.526 50.5101 115.745 50.5585 115.039C50.5982 114.451 50.5255 113.773 50.8911 113.357C51.0281 113.225 51.1755 113.106 51.3317 113.005C51.6162 112.784 51.8416 112.478 51.9835 112.122C52.1253 111.765 52.178 111.371 52.1357 110.982Z" fill="black"/>
</g>
<defs>
<linearGradient id="paint0_linear_380_757" x1="47.001" y1="181.399" x2="47.001" y2="101.535" gradientUnits="userSpaceOnUse">
<stop stop-color="#808080" stop-opacity="0.25"/>
<stop offset="0.54" stop-color="#808080" stop-opacity="0.12"/>
<stop offset="1" stop-color="#808080" stop-opacity="0.1"/>
</linearGradient>
<clipPath id="clip0_380_757">
<rect width="252" height="182" fill="white"/>
</clipPath>
</defs>
</svg>
