<svg width="234" height="160" viewBox="0 0 234 160" fill="none" xmlns="http://www.w3.org/2000/svg">
<path d="M107.658 159.262C160.236 159.262 202.859 155.279 202.859 150.365C202.859 145.451 160.236 141.468 107.658 141.468C55.0795 141.468 12.4563 145.451 12.4563 150.365C12.4563 155.279 55.0795 159.262 107.658 159.262Z" fill="#40241A"/>
<path d="M139.589 145.916H138.798C138.798 118.852 143.58 93.4158 152.263 74.2936C160.99 55.0724 172.639 44.4868 185.065 44.4868V45.2929C159.989 45.2929 139.589 90.4324 139.589 145.916Z" fill="#19403C"/>
<path d="M202.859 20.6994C202.859 26.8418 200.071 34.6996 196.631 34.6996C193.192 34.6996 190.403 26.8418 190.403 20.6994C190.403 14.5571 193.192 12.4563 196.631 12.4563C200.071 12.4563 202.859 14.5571 202.859 20.6994Z" fill="#D7D8D9"/>
<path d="M226.606 46.9142C220.493 47.7601 212.272 46.3479 211.78 43.271C211.288 40.194 218.71 36.6175 224.824 35.7715C230.938 34.9256 233.428 37.1307 233.92 40.2076C234.412 43.2846 232.72 46.0683 226.606 46.9142Z" fill="#D7D8D9"/>
<path d="M199.21 71.3997C196.979 65.6615 196.713 57.3687 199.906 56.1943C203.098 55.02 208.54 61.4089 210.771 67.1471C213.002 72.8852 211.177 75.7998 207.984 76.9741C204.792 78.1485 201.441 77.1379 199.21 71.3997Z" fill="#D7D8D9"/>
<path d="M198.855 52.4942C203.032 52.4942 206.418 48.9091 206.418 44.4866C206.418 40.0641 203.032 36.479 198.855 36.479C194.679 36.479 191.293 40.0641 191.293 44.4866C191.293 48.9091 194.679 52.4942 198.855 52.4942Z" fill="#023E73"/>
<path d="M95.2016 147.696H94.3955C94.3955 92.2117 73.603 47.0722 48.0457 47.0722V46.2661C60.7101 46.2661 72.5835 56.8517 81.4786 76.0729C90.3279 95.1951 95.2016 120.632 95.2016 147.696Z" fill="#19403C"/>
<path d="M31.1406 22.8087C31.1406 29.1967 33.9291 37.3689 37.3688 37.3689C40.8085 37.3689 43.5969 29.1967 43.5969 22.8087C43.5969 16.4207 40.8085 14.2358 37.3688 14.2358C33.9291 14.2358 31.1406 16.4207 31.1406 22.8087Z" fill="#D7D8D9"/>
<path d="M7.39371 50.436C13.5075 51.4121 21.7278 49.7826 22.2201 46.2323C22.7124 42.6819 15.2901 38.5552 9.17633 37.5791C3.06258 36.6031 0.572508 39.1473 0.0802519 42.6977C-0.412004 46.248 1.27996 49.4599 7.39371 50.436Z" fill="#D7D8D9"/>
<path d="M34.7901 73.8185C37.0209 67.8412 37.2868 59.2028 34.0943 57.9795C30.9019 56.7562 25.4599 63.4113 23.229 69.3886C20.9982 75.3659 22.8232 78.4019 26.0157 79.6251C29.2082 80.8484 32.5592 79.7957 34.7901 73.8185Z" fill="#D7D8D9"/>
<path d="M35.1445 55.1634C39.3213 55.1634 42.7073 51.5783 42.7073 47.1558C42.7073 42.7333 39.3213 39.1482 35.1445 39.1482C30.9677 39.1482 27.5818 42.7333 27.5818 47.1558C27.5818 51.5783 30.9677 55.1634 35.1445 55.1634Z" fill="#023E73"/>
<path d="M41.8176 146.284V129.901C41.8176 129.901 47.8233 135.833 41.8176 147.696" fill="#19403C"/>
<path d="M42.1655 145.605L46.2009 131.68C46.2009 131.68 50.2047 138.339 41.8176 146.806" fill="#19403C"/>
<path d="M149.475 143.614V127.232C149.475 127.232 153.479 133.163 149.475 145.027" fill="#19403C"/>
<path d="M149.823 142.795L153.859 127.232C153.859 127.232 157.862 134.674 149.475 144.137" fill="#19403C"/>
<path d="M126.342 144.504V128.122C126.342 128.122 120.336 134.053 126.342 145.917" fill="#19403C"/>
<path d="M125.936 143.685L121.228 128.122C121.228 128.122 116.557 135.564 126.342 145.027" fill="#19403C"/>
<path d="M106.768 0H106.768C109.836 0 112.778 1.18395 114.947 3.29139C117.116 5.39883 118.335 8.25714 118.335 11.2375V22.2434H95.2017V11.2375C95.2017 9.76178 95.5008 8.3005 96.0821 6.9371C96.6634 5.5737 97.5154 4.33489 98.5894 3.29139C99.6635 2.24789 100.939 1.42014 102.342 0.855404C103.745 0.290666 105.249 -3.43703e-07 106.768 0Z" fill="#291005"/>
<path d="M118.335 24.0227C114.083 27.3959 108.418 28.6968 102.32 29.3611C106.521 25.5541 104.875 21.3493 102.32 17.0828L111.642 16.0151C111.911 19.8883 114.601 22.2759 118.335 24.0227Z" fill="#FFB8B8"/>
<path d="M119.662 59.6122L92.5322 55.8466C94.7314 51.7134 96.2082 47.7204 95.6899 44.1144C95.4142 42.3124 95.4373 40.4774 95.7581 38.6828L95.9308 37.7643C96.29 35.9969 96.9753 34.3114 97.9518 32.7938C99.0414 31.0424 98.6655 28.4108 98.1942 25.7219L104.564 24.7805C108.079 26.5616 112.024 25.3749 116.124 23.1331L123.673 23.8391C123.161 37.2597 122.037 49.569 119.662 59.6122Z" fill="#D7D8D9"/>
<path d="M142.357 140.522L137.153 141.468L103.565 83.0618L90.3192 141.468L85.5885 141.231C85.485 108.132 83.9963 71.7907 92.0034 57.676C95.0075 50.5494 99.6038 43.7252 97.8884 36.7155C104.626 38.6783 111.408 38.538 118.231 36.479C117.91 44.89 118.214 52.7704 119.413 59.8886L142.357 140.522Z" fill="#023E73"/>
<path d="M140.777 156.593C139.647 156.593 138.548 156.217 137.651 155.522C136.754 154.828 136.108 153.854 135.815 152.751L135.356 151.028C135.247 150.62 135.214 150.196 135.259 149.775L136.132 141.613C137.798 139.527 140.22 139.024 143.664 140.662L145.792 150.267C145.96 151.026 145.958 151.814 145.784 152.572C145.61 153.33 145.27 154.039 144.788 154.647C144.307 155.254 143.696 155.745 143.002 156.082C142.308 156.418 141.547 156.593 140.777 156.593Z" fill="white"/>
<path d="M88.7442 156.593C87.5197 156.593 86.3294 156.217 85.3576 155.522C84.3857 154.828 83.6865 153.854 83.3681 152.751L82.8708 151.028C82.7531 150.62 82.7176 150.196 82.7663 149.775L83.7125 141.613C85.5167 139.527 88.1402 139.024 91.8714 140.662L94.1772 150.267C94.3595 151.026 94.3564 151.814 94.1682 152.572C93.98 153.331 93.6114 154.039 93.0898 154.647C92.5682 155.254 91.9068 155.745 91.1546 156.082C90.4024 156.418 89.5786 156.593 88.7442 156.593Z" fill="white"/>
<path d="M105.878 20.4637C110.301 20.4637 113.886 16.8786 113.886 12.4561C113.886 8.03361 110.301 4.44849 105.878 4.44849C101.456 4.44849 97.8706 8.03361 97.8706 12.4561C97.8706 16.8786 101.456 20.4637 105.878 20.4637Z" fill="#FFB8B8"/>
<path d="M99.6502 39.1484C100.142 39.1484 100.54 38.75 100.54 38.2586C100.54 37.7672 100.142 37.3689 99.6502 37.3689C99.1588 37.3689 98.7605 37.7672 98.7605 38.2586C98.7605 38.75 99.1588 39.1484 99.6502 39.1484Z" fill="#D7D8D9"/>
<path d="M117.445 39.1484C117.936 39.1484 118.335 38.75 118.335 38.2586C118.335 37.7672 117.936 37.3689 117.445 37.3689C116.954 37.3689 116.555 37.7672 116.555 38.2586C116.555 38.75 116.954 39.1484 117.445 39.1484Z" fill="#D7D8D9"/>
<path d="M111.245 11.5665L98.7605 11.3325V2.66919H113.886L111.245 11.5665Z" fill="#291005"/>
<path d="M115.666 22.2433H110.327C112.3 17.7257 112.126 12.9604 110.327 8.00757H115.666V22.2433Z" fill="#291005"/>
<path d="M122.257 66.9506L119.077 70.6787C118.669 71.1576 118.152 71.5321 117.57 71.7713C116.988 72.0105 116.357 72.1075 115.73 72.0541C115.102 72.0008 114.497 71.7986 113.964 71.4645C113.43 71.1304 112.984 70.6739 112.663 70.1329C112.374 69.6484 112.193 69.1079 112.131 68.5477C112.068 67.9874 112.126 67.4203 112.301 66.8843C112.475 66.3483 112.762 65.8557 113.143 65.4396C113.523 65.0234 113.988 64.6933 114.506 64.4712L120.157 62.0496L126.925 52.4807L123.191 35.9103L129.726 33.8098L133.46 54.8146L122.257 66.9506Z" fill="#FFB8B8"/>
<path d="M97.5072 69.5009L100.687 73.3157C101.096 73.8057 101.612 74.1889 102.194 74.4337C102.777 74.6785 103.408 74.7777 104.035 74.7231C104.662 74.6685 105.267 74.4616 105.801 74.1197C106.334 73.7779 106.78 73.3107 107.102 72.7572C107.39 72.2614 107.571 71.7083 107.634 71.1351C107.696 70.5618 107.638 69.9815 107.463 69.433C107.289 68.8846 107.002 68.3805 106.622 67.9547C106.241 67.5289 105.777 67.191 105.258 66.9638L99.6077 64.4858L92.8393 54.6945L96.5736 37.7387L90.0385 35.5894L86.3042 57.0826L97.5072 69.5009Z" fill="#FFB8B8"/>
<path d="M130.791 34.369C129.265 34.3276 127.745 34.5725 126.327 35.0885C124.909 35.6045 123.622 36.3807 122.546 37.369L120.114 24.0544L123.055 24.0229C124.254 24.0635 125.411 24.4389 126.369 25.0984C127.327 25.7579 128.04 26.6698 128.412 27.711L130.791 34.369Z" fill="#D7D8D9"/>
<path d="M88.9734 35.9481C90.4503 35.9039 91.9205 36.1652 93.293 36.7156C94.6654 37.266 95.911 38.0939 96.9526 39.1481C99.676 34.993 100.071 30.1426 99.3057 24.9459L96.4596 24.9124C95.2992 24.9556 94.1798 25.356 93.2528 26.0595C92.3257 26.763 91.6356 27.7357 91.2756 28.8463L88.9734 35.9481Z" fill="#D7D8D9"/>
<path d="M117.445 37.3688H117.698L119.223 23.4363C119.227 23.398 119.223 23.3594 119.211 23.3228C119.199 23.2862 119.179 23.2525 119.153 23.2239C119.127 23.1953 119.095 23.1724 119.059 23.1568C119.023 23.1411 118.985 23.1331 118.946 23.1331H117.723C117.649 23.1331 117.579 23.162 117.526 23.2134C117.474 23.2648 117.445 23.3345 117.445 23.4071V37.3688Z" fill="#023E73"/>
<path d="M99.6501 38.2584H99.9048L101.428 25.1587C101.432 25.1278 101.429 25.0964 101.42 25.0667C101.41 25.037 101.395 25.0096 101.374 24.9864C101.354 24.9631 101.329 24.9445 101.301 24.9317C101.273 24.9189 101.242 24.9124 101.212 24.9124H99.8683C99.8105 24.9124 99.755 24.9357 99.7141 24.9771C99.6732 25.0185 99.6502 25.0746 99.6501 25.1331V38.2584Z" fill="#023E73"/>
</svg>
