<svg width="199" height="162" viewBox="0 0 199 162" fill="none" xmlns="http://www.w3.org/2000/svg">
<g clip-path="url(#clip0_380_354)">
<path d="M158.867 29.5087C157.833 40.941 154.888 52.9957 150.269 64.6269C144.557 79.0103 136.754 91.6793 127.702 101.264L127.199 100.824C136.208 91.2857 143.976 78.6727 149.664 64.3487C154.804 51.4044 157.861 37.9339 158.51 25.3994L159.151 25.5072C159.083 26.831 158.988 28.1649 158.867 29.5087Z" fill="#F2F2F2"/>
<path d="M162.984 95.9052C150.27 116.208 134.844 130.714 119.55 136.752L119.24 136.182C134.429 130.187 149.764 115.755 162.42 95.5446L162.984 95.9052Z" fill="#F2F2F2"/>
<path d="M158.558 43.7423C157.524 55.1746 154.579 67.2293 149.96 78.8605C144.249 93.244 136.445 105.913 127.393 115.498L126.891 115.058C135.899 105.519 143.667 92.9063 149.355 78.5823C154.495 65.638 157.553 52.1675 158.201 39.633L158.843 39.7408C158.775 41.0646 158.68 42.3985 158.558 43.7423Z" fill="#40241A"/>
<path d="M15.8233 73.0924H7.48116C7.30293 73.0928 7.12693 73.0527 6.96635 72.975C6.80578 72.8974 6.66481 72.7843 6.55401 72.6442C6.44455 72.5076 6.36732 72.348 6.32813 72.1772C6.28893 72.0064 6.28878 71.8289 6.3277 71.658C7.1222 68.1393 7.07229 64.4815 6.18207 60.9859C6.12576 60.7557 6.13938 60.5139 6.22116 60.2916C6.30295 60.0693 6.44916 59.8766 6.64097 59.7384C10.9305 56.6419 14.3087 56.7317 16.6817 60.0059C16.7886 60.1552 16.8597 60.3273 16.8893 60.5087C17.5233 64.3346 17.5584 68.2364 16.9933 72.0731C16.954 72.3563 16.8138 72.6156 16.5987 72.803C16.3836 72.9904 16.1081 73.0932 15.8233 73.0924Z" fill="#E6E6E6"/>
<path d="M13.2371 64.7075H10.3674C10.2087 64.7075 10.0565 64.6442 9.94428 64.5316C9.83207 64.4189 9.76904 64.2662 9.76904 64.1069C9.76904 63.9476 9.83207 63.7949 9.94428 63.6822C10.0565 63.5696 10.2087 63.5063 10.3674 63.5063H13.2371C13.3956 63.5067 13.5474 63.5701 13.6594 63.6827C13.7713 63.7953 13.8342 63.9478 13.8342 64.1069C13.8342 64.266 13.7713 64.4185 13.6594 64.5311C13.5474 64.6437 13.3956 64.7071 13.2371 64.7075Z" fill="white"/>
<path d="M13.2371 66.8137H10.3674C10.2087 66.8137 10.0565 66.7504 9.94428 66.6378C9.83207 66.5251 9.76904 66.3724 9.76904 66.2131C9.76904 66.0538 9.83207 65.9011 9.94428 65.7884C10.0565 65.6758 10.2087 65.6125 10.3674 65.6125H13.2371C13.3956 65.6129 13.5474 65.6763 13.6594 65.7889C13.7713 65.9015 13.8342 66.054 13.8342 66.2131C13.8342 66.3722 13.7713 66.5247 13.6594 66.6373C13.5474 66.7499 13.3956 66.8133 13.2371 66.8137Z" fill="white"/>
<path d="M13.2371 68.9198H10.3674C10.2087 68.9198 10.0565 68.8566 9.94428 68.7439C9.83207 68.6313 9.76904 68.4786 9.76904 68.3193C9.76904 68.16 9.83207 68.0072 9.94428 67.8946C10.0565 67.782 10.2087 67.7187 10.3674 67.7187H13.2371C13.3956 67.7191 13.5474 67.7825 13.6594 67.8951C13.7713 68.0077 13.8342 68.1602 13.8342 68.3193C13.8342 68.4783 13.7713 68.6309 13.6594 68.7435C13.5474 68.8561 13.3956 68.9195 13.2371 68.9198Z" fill="white"/>
<path d="M167.434 110.477H159.092C158.913 110.478 158.737 110.438 158.577 110.36C158.416 110.282 158.275 110.169 158.164 110.029C158.055 109.893 157.978 109.733 157.938 109.562C157.899 109.391 157.899 109.214 157.938 109.043C158.733 105.524 158.683 101.867 157.792 98.3709C157.736 98.1408 157.75 97.899 157.832 97.6767C157.913 97.4543 158.06 97.2617 158.251 97.1235C162.541 94.0269 165.919 94.1168 168.292 97.391C168.399 97.5402 168.47 97.7123 168.5 97.8937C169.134 101.72 169.169 105.621 168.604 109.458C168.564 109.741 168.424 110.001 168.209 110.188C167.994 110.375 167.718 110.478 167.434 110.477Z" fill="#E6E6E6"/>
<path d="M164.847 102.092H161.977C161.819 102.092 161.667 102.029 161.555 101.916C161.443 101.804 161.38 101.651 161.38 101.492C161.38 101.333 161.443 101.18 161.555 101.068C161.667 100.955 161.819 100.892 161.977 100.891H164.847C165.006 100.891 165.158 100.955 165.27 101.067C165.382 101.18 165.445 101.333 165.445 101.492C165.445 101.651 165.382 101.804 165.27 101.917C165.158 102.029 165.006 102.092 164.847 102.092Z" fill="white"/>
<path d="M164.847 104.199H161.977C161.819 104.198 161.667 104.135 161.555 104.022C161.443 103.91 161.38 103.757 161.38 103.598C161.38 103.439 161.443 103.286 161.555 103.174C161.667 103.061 161.819 102.998 161.977 102.998H164.847C165.006 102.998 165.158 103.061 165.27 103.173C165.382 103.286 165.445 103.439 165.445 103.598C165.445 103.757 165.382 103.91 165.27 104.023C165.158 104.135 165.006 104.199 164.847 104.199Z" fill="white"/>
<path d="M164.847 106.305H161.977C161.819 106.305 161.667 106.241 161.555 106.129C161.443 106.016 161.38 105.863 161.38 105.704C161.38 105.545 161.443 105.393 161.555 105.28C161.667 105.168 161.819 105.104 161.977 105.104H164.847C165.006 105.104 165.158 105.167 165.27 105.28C165.382 105.392 165.445 105.545 165.445 105.704C165.445 105.864 165.382 106.016 165.27 106.129C165.158 106.242 165.006 106.305 164.847 106.305Z" fill="white"/>
<path d="M199 161.687C199 161.728 198.992 161.769 198.976 161.807C198.961 161.845 198.938 161.879 198.909 161.909C198.88 161.938 198.845 161.961 198.807 161.976C198.77 161.992 198.729 162 198.688 162H0.312139C0.229355 162 0.149964 161.967 0.0914268 161.908C0.0328895 161.849 0 161.77 0 161.687C0 161.604 0.0328895 161.524 0.0914268 161.465C0.149964 161.406 0.229355 161.373 0.312139 161.373H198.688C198.729 161.373 198.77 161.381 198.807 161.397C198.845 161.413 198.88 161.436 198.909 161.465C198.938 161.494 198.961 161.529 198.976 161.567C198.992 161.605 199 161.646 199 161.687Z" fill="#CCCCCC"/>
<path d="M52.3302 142.504L51.8099 135.241C48.4017 133.531 44.6292 132.682 40.8198 132.767C46.1791 136.925 45.7498 145.235 49.4614 150.923C50.6325 152.688 52.1843 154.165 54.0018 155.246C55.8193 156.328 57.8559 156.984 59.9607 157.168L64.4209 159.743C64.9311 156.359 64.7042 152.903 63.7557 149.615C62.8073 146.327 61.16 143.284 58.9272 140.697C57.6602 139.257 56.2178 137.984 54.6338 136.907C53.6589 139.716 52.3302 142.504 52.3302 142.504Z" fill="#F2F2F2"/>
<path d="M146.67 143.558L147.19 136.294C150.599 134.584 154.371 133.735 158.181 133.82C152.821 137.978 153.251 146.289 149.539 151.976C148.368 153.741 146.816 155.218 144.999 156.3C143.181 157.381 141.144 158.037 139.04 158.221L134.579 160.797C134.069 157.412 134.296 153.956 135.245 150.668C136.193 147.38 137.84 144.337 140.073 141.75C141.34 140.311 142.783 139.037 144.366 137.96C145.341 140.769 146.67 143.558 146.67 143.558Z" fill="#F2F2F2"/>
<path d="M97.1395 61.5911C99.8919 61.5911 102.123 59.3516 102.123 56.5889C102.123 53.8263 99.8919 51.5867 97.1395 51.5867C94.387 51.5867 92.1558 53.8263 92.1558 56.5889C92.1558 59.3516 94.387 61.5911 97.1395 61.5911Z" fill="#19403C"/>
<path d="M99.6976 54.5042C99.6227 54.4324 99.523 54.3923 99.4194 54.3923C99.3158 54.3923 99.2162 54.4324 99.1412 54.5042C98.0837 55.3507 97.1339 56.3245 96.3131 57.4036C96.1116 57.0122 95.9101 56.6209 95.7086 56.2296C95.4761 55.7779 94.7968 56.1769 95.0292 56.6282C95.3239 57.2006 95.6186 57.773 95.9133 58.3454C95.9489 58.4038 95.9988 58.4521 96.0583 58.4856C96.1178 58.5191 96.1849 58.5367 96.2531 58.5367C96.3213 58.5367 96.3884 58.5191 96.4479 58.4856C96.5074 58.4521 96.5573 58.4038 96.5928 58.3454C97.4675 57.1089 98.5129 56.0036 99.6976 55.0627C99.7709 54.9883 99.8119 54.888 99.8119 54.7834C99.8119 54.6789 99.7709 54.5785 99.6976 54.5042Z" fill="white"/>
<path d="M74.8395 70.7734L67.3242 58.9272L76.0268 54.2492L78.3109 63.2874L94.4045 72.0162C95.0399 71.7867 95.728 71.7477 96.3851 71.904C97.0422 72.0603 97.6398 72.405 98.105 72.8963C98.5702 73.3876 98.883 74.0041 99.0052 74.6707C99.1273 75.3373 99.0536 76.0252 98.793 76.6504C98.5324 77.2757 98.0962 77.8114 97.5375 78.1921C96.9789 78.5728 96.3219 78.7822 95.6467 78.7946C94.9716 78.8071 94.3074 78.6221 93.7352 78.2622C93.163 77.9023 92.7074 77.3831 92.4241 76.7679L74.8395 70.7734Z" fill="#A0616A"/>
<path d="M61.8335 44.7188C59.4721 48.1987 67.8638 60.8477 67.8638 60.8477C68.2726 59.9633 72.1804 69.8954 72.835 69.3087C74.6952 67.6412 77.6073 62.9964 79.226 62.7893C80.1517 62.6709 77.0791 56.0815 77.0791 56.0815C77.0791 56.0815 75.6748 52.1904 73.7693 47.22C73.2566 45.8047 72.3954 44.5427 71.266 43.5514C70.1366 42.56 68.7757 41.8716 67.3099 41.5502C67.3099 41.5502 64.1948 41.2389 61.8335 44.7188Z" fill="#2C87BE"/>
<path d="M61.949 158.094L65.5182 158.094L67.216 144.276L61.9482 144.276L61.949 158.094Z" fill="#A0616A"/>
<path d="M61.0386 156.925L62.0432 156.924L65.9654 155.323L68.0676 156.924H68.0679C69.2559 156.924 70.3952 157.398 71.2352 158.241C72.0753 159.084 72.5472 160.228 72.5473 161.42V161.566L61.0388 161.567L61.0386 156.925Z" fill="black"/>
<path d="M78.5308 158.094L82.0999 158.094L83.7981 144.276L78.5303 144.276L78.5308 158.094Z" fill="#A0616A"/>
<path d="M77.6201 156.925L78.6247 156.924L82.547 155.323L84.6491 156.924H84.6494C85.8374 156.924 86.9767 157.398 87.8168 158.241C88.6568 159.084 89.1288 160.228 89.1289 161.42V161.566L77.6203 161.567L77.6201 156.925Z" fill="black"/>
<path d="M80.0757 82.5503L56.8602 83.1329C52.4511 85.5366 52.3841 90.7391 53.8288 96.9159C53.8288 96.9159 53.3411 100.587 54.3165 101.566C55.2919 102.545 55.7796 102.545 55.2919 104.259C54.8042 105.972 57.3809 108.77 57.068 109.084C56.755 109.398 56.0234 111.112 56.0234 111.112L58.4619 125.063C58.4619 125.063 60.1689 149.294 60.6566 149.783C61.1443 150.273 61.632 149.783 61.1443 151.007C60.6566 152.231 60.1689 151.741 60.6566 152.231C61.0886 152.698 61.4956 153.188 61.8758 153.699H67.7714C67.7714 153.699 68.2159 151.252 68.2159 151.007C68.2159 150.762 68.7036 149.294 68.7036 149.049C68.7036 148.804 68.2726 148.371 68.2726 148.371C68.1236 147.874 68.023 147.363 67.9721 146.846C67.9721 146.356 66.509 127.51 66.509 127.51L69.4352 103.035L76.5068 127.021C76.5068 127.021 76.5068 148.07 76.9945 148.559C77.4822 149.049 77.4822 148.804 77.2383 149.783C76.9945 150.762 76.0191 150.517 76.7506 151.252C77.4822 151.986 77.726 150.762 77.4822 151.986L77.2384 153.21L84.5538 153.315C84.5538 153.315 85.5292 151.252 85.0415 150.517C84.5538 149.783 84.5831 149.983 85.1781 148.782C85.7731 147.58 86.0169 147.335 85.7731 147.091C85.5293 146.846 85.5292 145.544 85.5292 145.544L84.31 122.126C84.31 122.126 84.0661 97.4054 84.0661 96.6712C84.0478 96.2934 84.1171 95.9164 84.2687 95.5701V94.5734L83.3346 91.0418L80.0757 82.5503Z" fill="black"/>
<path d="M66.1297 34.098C70.1135 34.098 73.3429 30.8566 73.3429 26.8581C73.3429 22.8595 70.1135 19.6181 66.1297 19.6181C62.146 19.6181 58.9165 22.8595 58.9165 26.8581C58.9165 30.8566 62.146 34.098 66.1297 34.098Z" fill="#A0616A"/>
<path d="M69.736 38.8832C71.29 39.8104 72.2196 41.5142 72.7532 43.2479C73.7412 46.4577 74.3358 49.7763 74.5241 53.1305L75.0877 63.1721L82.0683 84.5537C76.0185 89.6917 53.2783 85.7214 53.2783 85.7214C53.2783 85.7214 52.5802 85.4879 53.2783 84.7873C53.9763 84.0866 54.6559 84.7073 53.9578 84.0067C53.2598 83.306 53.741 84.0866 53.9737 83.386C54.2064 82.6853 53.9737 83.1524 53.741 82.9189C53.5083 82.6853 55.5423 80.5834 55.5423 80.5834L53.6808 68.3102L51.354 43.5541C54.1462 40.0509 59.7617 37.9858 59.7617 37.9858L61.2127 35.3643L68.4675 35.9469L69.736 38.8832Z" fill="#2C87BE"/>
<path d="M72.0757 23.0116C72.6363 23.4313 73.0516 24.0169 73.2632 24.686C73.3445 23.5925 73.3497 22.4948 73.2787 21.4006C73.1936 20.6318 72.6543 20.4588 72.0299 20.2584C71.4659 20.0774 70.8282 19.8729 70.6566 19.1265C68.3891 16.9125 64.442 17.0241 61.7407 17.7964C60.2543 18.2214 59.3991 18.7674 59.3225 19.0872L59.3067 19.1531L59.2463 19.1834C58.1006 19.7584 57.8775 21.5741 57.8923 22.9961C57.9202 25.6751 58.8418 28.7178 59.3609 28.965C59.3884 28.9781 59.3954 28.973 59.4073 28.963C60.189 28.336 61.1428 29.0107 61.5619 29.3775C61.8091 27.7124 62.6051 26.1785 63.8228 25.0208C65.0404 23.863 66.6095 23.1482 68.2793 22.9905C68.8246 22.9376 69.3656 22.8466 69.8983 22.718C70.1686 22.6479 70.4463 22.6113 70.7254 22.6091C71.2059 22.6018 71.6771 22.7422 72.0757 23.0116Z" fill="black"/>
<path d="M116.855 88.3193L130.73 74.1766L134.386 62.8655L128.503 60.4771C125.589 63.4277 122.589 72.4601 122.589 72.4601L113.118 85.218C113.043 85.2462 112.967 85.276 112.893 85.3112C112.457 85.5179 112.081 85.8339 111.803 86.2288C111.524 86.6237 111.351 87.0841 111.302 87.5655C111.252 88.0469 111.327 88.533 111.519 88.9769C111.711 89.4207 112.014 89.8073 112.399 90.0993C112.783 90.3913 113.236 90.5788 113.714 90.6437C114.192 90.7085 114.678 90.6486 115.126 90.4696C115.574 90.2907 115.969 89.9987 116.272 89.622C116.574 89.2454 116.775 88.7967 116.855 88.3193Z" fill="#FFB8B8"/>
<path d="M126.898 61.7711L134.338 63.9312L134.365 63.9258C137.1 63.3929 139.263 58.8314 140.596 55.0986C141.035 53.8674 140.991 52.515 140.474 51.3148C139.958 50.1146 139.006 49.1562 137.812 48.6332C136.929 48.2534 135.957 48.1292 135.007 48.2746C134.057 48.42 133.167 48.8292 132.436 49.456L128.727 52.662L126.898 61.7711Z" fill="#19403C"/>
<path d="M120.533 157.674L116.532 157.674L114.628 142.184L120.533 142.184L120.533 157.674Z" fill="#FFB8B8"/>
<path d="M121.554 156.363L120.427 156.363L116.031 154.568L113.674 156.363H113.674C112.342 156.363 111.065 156.894 110.123 157.839C109.182 158.784 108.652 160.066 108.652 161.403V161.566L121.553 161.567L121.554 156.363Z" fill="black"/>
<path d="M138.286 157.674L134.285 157.674L132.382 142.184L138.287 142.184L138.286 157.674Z" fill="#FFB8B8"/>
<path d="M139.307 156.363L138.181 156.363L133.784 154.568L131.428 156.363H131.427C130.095 156.363 128.818 156.894 127.877 157.839C126.935 158.784 126.406 160.066 126.406 161.403V161.566L139.307 161.567L139.307 156.363Z" fill="black"/>
<path d="M144.387 90.9535C144.387 90.9535 144.854 96.5806 143.686 101.973C142.518 107.366 142.518 122.554 142.518 122.554L139.949 152.149L132.24 151.445L130.138 101.973L122.663 118.62L123.363 120.965L122.43 121.551C122.43 121.551 123.13 126.123 122.663 126.123C122.195 126.123 121.027 126.826 121.027 126.826L121.962 150.976L114.019 150.742L111.216 116.745L114.253 97.284L114.487 93.5326L115.538 93.576L116.073 92.0086L117.056 89.3122L144.387 90.9535Z" fill="black"/>
<path d="M144.791 92.1354L144.832 92.0768C147.056 88.9523 143.712 81.4441 143.207 80.3557L145.332 79.6638L144.853 75.5823L144.627 73.7627L146.25 72.133L146.255 72.0924L147.189 63.8861L148.548 58.4356C149.06 56.3751 149.016 54.215 148.421 52.1771C147.827 50.1391 146.703 48.2967 145.164 46.8389L142.024 43.867L138.207 38.199H132.053L129.942 42.1998C127.897 42.6744 126.081 43.8544 124.813 45.5342C123.545 47.214 122.904 49.2871 123.002 51.3924L123.48 61.8853L121.608 74.9498L121.607 77.3141L119.5 79.6645L119.96 81.9735L118.356 82.6633L117.648 85.9797C117.355 86.3678 115.421 88.9563 115.421 89.6639C115.421 89.7702 115.499 89.8729 115.667 89.9868C116.985 90.8826 124.27 92.709 127.494 91.4139C130.929 90.0355 144.582 92.1034 144.72 92.1244L144.791 92.1354Z" fill="#19403C"/>
<path d="M134.335 36.3693C138.837 36.3693 142.486 32.7065 142.486 28.1882C142.486 23.6699 138.837 20.0071 134.335 20.0071C129.833 20.0071 126.184 23.6699 126.184 28.1882C126.184 32.7065 129.833 36.3693 134.335 36.3693Z" fill="#FFB8B8"/>
<path d="M133.554 36.5018C134.816 36.4888 136.075 36.3677 137.317 36.1397C138.546 35.8554 141.259 33.7503 141.998 32.5066C142.547 31.5826 142.877 30.1534 143.057 29.1172C143.299 27.7459 143.253 26.3386 142.919 24.9866C142.586 23.6346 141.973 22.3679 141.121 21.2686C140.792 20.8081 140.346 20.4452 139.829 20.2184C139.783 20.2018 139.736 20.1873 139.689 20.1751C138.939 19.9977 138.26 19.5996 137.737 19.0318C137.636 18.9168 137.526 18.8094 137.409 18.7102C136.823 18.2392 136.135 17.9141 135.399 17.7615C134.211 17.4752 132.512 17.834 130.349 18.8288C129.262 19.3287 128.056 19.1892 127.126 19.0119C127.074 19.0032 127.021 19.0083 126.971 19.0268C126.922 19.0453 126.878 19.0764 126.844 19.1172C126.46 19.4981 125.947 19.719 125.408 19.7355C125.078 19.7587 124.743 20.2269 124.339 20.8367C124.247 20.9751 124.141 21.1366 124.063 21.2352L124.047 21.0501L123.866 21.2617C123.58 21.5944 123.383 21.9942 123.293 22.4238C123.203 22.8535 123.223 23.299 123.351 23.719C123.478 24.139 123.71 24.5197 124.023 24.8256C124.337 25.1316 124.723 25.353 125.145 25.469C125.48 25.5492 125.821 25.5948 126.165 25.6053C126.374 25.6187 126.59 25.6325 126.797 25.6631C127.462 25.782 128.085 26.072 128.606 26.5048C129.126 26.9376 129.526 27.4985 129.766 28.1326C129.822 28.2792 129.912 28.4107 130.027 28.517C130.142 28.6234 130.28 28.7017 130.431 28.746C130.581 28.7902 130.739 28.7992 130.894 28.7723C131.048 28.7453 131.194 28.6832 131.321 28.5906C131.531 28.4171 131.78 28.2973 132.047 28.2414C132.313 28.1855 132.59 28.1952 132.852 28.2696C133.079 28.3891 133.259 28.5837 133.361 28.8207C133.485 29.0844 133.683 29.3054 133.932 29.4553C134.781 29.867 134.888 31.7854 134.628 33.3936C134.378 34.9439 133.834 36.0748 133.305 36.1437C132.897 36.1967 132.851 36.227 132.823 36.3003L132.799 36.3659L132.846 36.4254C133.074 36.5017 133.315 36.5277 133.554 36.5018Z" fill="black"/>
<path d="M126.792 62.646L122.874 57.6354C118.883 58.7384 111.802 65.0736 111.802 65.0736L97.2596 71.4079C96.7742 71.326 96.2759 71.3739 95.8149 71.5468C95.3538 71.7197 94.9463 72.0114 94.6333 72.3926C94.3202 72.7739 94.1128 73.2311 94.0318 73.7184C93.9509 74.2057 93.9992 74.7058 94.172 75.1683C94.3448 75.6309 94.6359 76.0396 95.0161 76.3533C95.3963 76.667 95.8521 76.8747 96.3377 76.9554C96.8233 77.0361 97.3214 76.987 97.7821 76.813C98.2427 76.639 98.6496 76.3463 98.9617 75.9643L118.012 70.6299L126.792 62.646Z" fill="#FFB8B8"/>
<path d="M125.853 63.7915L132.035 56.8746L132.378 51.9735C132.442 51.0111 132.236 50.0499 131.784 49.1986C131.332 48.3473 130.652 47.6398 129.821 47.156C128.69 46.5079 127.355 46.3151 126.088 46.6167C124.82 46.9183 123.714 47.6918 122.993 48.7807C120.808 52.085 118.459 56.5525 119.668 59.0713L119.68 59.0969L125.853 63.7915Z" fill="#19403C"/>
<path d="M68.8747 89.7899L52.8077 81.5306C51.6648 80.9431 51.2862 79.3849 51.9638 78.057L62.4399 57.5259C63.1174 56.198 64.5984 55.5957 65.7413 56.1831L81.8084 64.4424C82.9512 65.0299 83.3298 66.5881 82.6522 67.916L72.1762 88.4472C71.4986 89.775 70.0176 90.3774 68.8747 89.7899Z" fill="#E6E6E6"/>
<path d="M66.1295 85.993L55.2133 80.3816C54.143 79.8313 53.7883 78.372 54.4229 77.1284L63.1263 60.0714C63.7608 58.8278 65.1479 58.2638 66.2182 58.814L79.4028 65.5915C80.4731 66.1417 80.8276 67.601 80.1931 68.8446L75.4649 78.1109C72.6385 83.6502 70.8972 88.4439 66.1295 85.993Z" fill="white"/>
<path d="M71.5266 76.6782L61.8578 71.708C61.7396 71.6235 61.6556 71.499 61.6212 71.3575C61.5868 71.2159 61.6043 71.0667 61.6705 70.937C61.7367 70.8073 61.8471 70.7059 61.9816 70.6511C62.1162 70.5964 62.2658 70.5921 62.4033 70.639L72.0721 75.6092C72.1903 75.6938 72.2743 75.8182 72.3087 75.9597C72.3431 76.1013 72.3256 76.2505 72.2594 76.3802C72.1932 76.5099 72.0828 76.6114 71.9482 76.6661C71.8137 76.7208 71.664 76.7251 71.5266 76.6782Z" fill="#19403C"/>
<path d="M62.9867 74.9544L60.7802 73.8201C60.662 73.7356 60.578 73.6111 60.5436 73.4696C60.5092 73.328 60.5267 73.1788 60.5929 73.0491C60.659 72.9194 60.7695 72.8179 60.904 72.7632C61.0386 72.7085 61.1882 72.7042 61.3257 72.751L63.5322 73.8853C63.6504 73.9699 63.7344 74.0943 63.7688 74.2358C63.8032 74.3774 63.7857 74.5266 63.7195 74.6563C63.6533 74.786 63.5429 74.8875 63.4083 74.9422C63.2738 74.9969 63.1241 75.0012 62.9867 74.9544Z" fill="#19403C"/>
<path d="M65.8171 79.0754L59.7025 75.9322C59.5843 75.8477 59.5003 75.7233 59.4659 75.5817C59.4316 75.4401 59.449 75.2909 59.5152 75.1612C59.5814 75.0315 59.6918 74.93 59.8264 74.8753C59.9609 74.8206 60.1106 74.8163 60.248 74.8632L66.3625 78.0063C66.4808 78.0909 66.5647 78.2153 66.5991 78.3569C66.6335 78.4984 66.616 78.6477 66.5499 78.7774C66.4837 78.907 66.3732 79.0085 66.2387 79.0632C66.1042 79.118 65.9545 79.1223 65.8171 79.0754V79.0754Z" fill="#19403C"/>
<path d="M75.3528 69.1797L65.684 64.2094C65.5658 64.1249 65.4818 64.0005 65.4474 63.8589C65.413 63.7174 65.4305 63.5681 65.4967 63.4384C65.5628 63.3088 65.6733 63.2073 65.8078 63.1526C65.9424 63.0979 66.092 63.0935 66.2295 63.1404L75.8982 68.1106C76.0165 68.1952 76.1004 68.3196 76.1348 68.4612C76.1692 68.6027 76.1517 68.752 76.0856 68.8816C76.0194 69.0113 75.909 69.1128 75.7744 69.1675C75.6399 69.2222 75.4902 69.2265 75.3528 69.1797Z" fill="#19403C"/>
<path d="M66.8129 67.4558L64.6063 66.3215C64.4881 66.237 64.4041 66.1126 64.3698 65.971C64.3354 65.8294 64.3529 65.6802 64.419 65.5505C64.4852 65.4208 64.5956 65.3194 64.7302 65.2646C64.8647 65.2099 65.0144 65.2056 65.1518 65.2525L67.3584 66.3867C67.4766 66.4713 67.5605 66.5957 67.5949 66.7373C67.6293 66.8788 67.6118 67.0281 67.5457 67.1578C67.4795 67.2874 67.369 67.3889 67.2345 67.4436C67.1 67.4983 66.9503 67.5027 66.8129 67.4558Z" fill="#19403C"/>
<path d="M69.6432 71.5768L63.5287 68.4336C63.4105 68.3491 63.3265 68.2247 63.2921 68.0831C63.2577 67.9415 63.2752 67.7923 63.3414 67.6626C63.4076 67.5329 63.518 67.4315 63.6525 67.3767C63.7871 67.322 63.9367 67.3177 64.0742 67.3646L70.1887 70.5077C70.3069 70.5923 70.3909 70.7167 70.4253 70.8583C70.4597 70.9998 70.4422 71.1491 70.376 71.2788C70.3099 71.4084 70.1994 71.5099 70.0649 71.5646C69.9303 71.6194 69.7807 71.6237 69.6432 71.5768L69.6432 71.5768Z" fill="#19403C"/>
<path d="M55.5609 71.9155L51.9312 58.3523L61.6309 56.5094L61.1093 65.819L73.8539 78.9906C74.5286 78.9629 75.1968 79.1328 75.7769 79.4797C76.357 79.8266 76.8241 80.3354 77.1211 80.9441C77.4181 81.5528 77.5323 82.2351 77.4496 82.9077C77.367 83.5804 77.0912 84.2144 76.6557 84.7325C76.2203 85.2505 75.6441 85.6302 74.9974 85.8253C74.3507 86.0203 73.6614 86.0223 73.0136 85.8309C72.3658 85.6395 71.7875 85.2631 71.3491 84.7476C70.9108 84.232 70.6313 83.5996 70.5449 82.9274L55.5609 71.9155Z" fill="#A0616A"/>
<path d="M50.9383 43.1452C47.6458 45.7541 51.8717 60.3469 51.8717 60.3469C52.5259 59.6262 53.2862 70.2776 54.086 69.9149C56.3588 68.8841 60.5247 65.3296 62.1307 65.6194C63.0492 65.7851 62.0869 58.574 62.0869 58.574C62.0869 58.574 61.91 54.4394 61.5773 49.1241C61.5111 47.6197 61.0666 46.1565 60.2854 44.8709C59.5042 43.5852 58.4116 42.5188 57.1093 41.771C57.1093 41.771 54.2307 40.5363 50.9383 43.1452Z" fill="#2C87BE"/>
<path d="M105.721 102.02L96.9537 97.8646C96.7662 97.7762 96.6011 97.6463 96.4707 97.4848C96.3403 97.3232 96.2481 97.1341 96.2009 96.9316C96.1534 96.7335 96.1512 96.5273 96.1945 96.3282C96.2377 96.1292 96.3253 95.9426 96.4507 95.7824C98.9904 92.5244 100.734 88.7145 101.543 84.6581C101.604 84.3475 101.77 84.0677 102.014 83.8666C102.257 83.6654 102.563 83.5552 102.878 83.5549C107.35 83.5701 110.692 85.209 112.811 88.4253C112.923 88.5926 112.997 88.7823 113.028 88.9813C113.059 89.1802 113.047 89.3836 112.992 89.5773C111.765 93.8223 109.898 97.8538 107.455 101.532C107.274 101.81 106.998 102.012 106.68 102.102C106.361 102.192 106.02 102.163 105.721 102.02Z" fill="#E6E6E6"/>
<path d="M108.301 96.1917L101.597 93.0143C101.43 92.9353 101.301 92.793 101.239 92.6187C101.177 92.4444 101.186 92.2525 101.265 92.0851C101.344 91.9177 101.485 91.7885 101.659 91.726C101.833 91.6636 102.024 91.6729 102.191 91.7519L108.895 94.9293C108.977 94.9685 109.051 95.0236 109.113 95.0914C109.174 95.1593 109.221 95.2387 109.252 95.325C109.283 95.4112 109.297 95.5028 109.292 95.5943C109.288 95.6859 109.265 95.7757 109.226 95.8586C109.187 95.9415 109.133 96.0158 109.065 96.0774C108.997 96.139 108.918 96.1867 108.832 96.2176C108.746 96.2485 108.655 96.2622 108.564 96.2577C108.473 96.2533 108.383 96.2309 108.301 96.1917H108.301Z" fill="white"/>
<path d="M109.342 93.9781L102.638 90.8007C102.471 90.7216 102.343 90.5793 102.281 90.405C102.218 90.2308 102.228 90.0388 102.306 89.8714C102.385 89.704 102.527 89.5749 102.7 89.5124C102.874 89.4499 103.065 89.4592 103.232 89.5383L109.936 92.7157C110.103 92.7947 110.232 92.937 110.294 93.1113C110.356 93.2856 110.347 93.4775 110.268 93.6449C110.189 93.8123 110.047 93.9415 109.874 94.004C109.7 94.0664 109.509 94.0571 109.342 93.9781V93.9781Z" fill="white"/>
<path d="M100.384 24.4885L99.76 24.5572C96.9776 13.5827 91.5845 5.97972 84.1632 2.57001C74.7288 -1.76434 63.0628 1.14626 51.3141 10.7658C39.5057 20.4344 29.0522 35.7066 21.8794 53.7698L21.2739 53.4917C28.4782 35.3496 38.9854 20.0036 50.8599 10.2812C62.794 0.50969 74.6981 -2.42225 84.3793 2.02559C92.0135 5.53301 97.5478 13.3006 100.384 24.4885Z" fill="#40241A"/>
<path d="M31.5372 38.7813C29.9052 42.232 28.353 45.8069 26.9235 49.4066C18.6976 70.1216 14.5291 91.2772 14.8697 110.587L14.2268 110.518C13.8858 91.1366 18.0664 69.9081 26.318 49.1284C27.7516 45.5186 29.3083 41.9336 30.9449 38.4732L31.5372 38.7813Z" fill="#F2F2F2"/>
<path d="M31.2286 53.015C29.5966 56.4656 28.0444 60.0405 26.6149 63.6402C18.389 84.3553 14.2205 105.511 14.5611 124.821L13.9182 124.752C13.5772 105.37 17.7578 84.1417 26.0094 63.3621C27.443 59.7522 28.9997 56.1672 30.6363 52.7068L31.2286 53.015Z" fill="#40241A"/>
<path d="M13.949 58.1915C14.6597 57.1193 14.239 55.5845 13.0095 54.7635C11.7799 53.9424 10.207 54.1459 9.49629 55.2181C8.7856 56.2903 9.20624 57.8251 10.4358 58.6462C11.6654 59.4672 13.2383 59.2637 13.949 58.1915Z" fill="#CCCCCC"/>
<path d="M165.282 96.9111C165.992 95.8389 165.572 94.3041 164.342 93.483C163.112 92.662 161.539 92.8655 160.829 93.9377C160.118 95.0099 160.539 96.5447 161.768 97.3657C162.998 98.1868 164.571 97.9833 165.282 96.9111Z" fill="#CCCCCC"/>
</g>
<defs>
<clipPath id="clip0_380_354">
<rect width="199" height="162" fill="white"/>
</clipPath>
</defs>
</svg>
