<svg width="460" height="373" viewBox="0 0 460 373" fill="none" xmlns="http://www.w3.org/2000/svg">
<g clip-path="url(#clip0_380_43)">
<path d="M423.491 365.817L416.623 365.816L413.356 340.172H423.492L423.491 365.817Z" fill="#CB9E90"/>
<path d="M425.242 372.261L403.098 372.261V371.989C403.098 369.776 404.006 367.654 405.623 366.089C407.239 364.525 409.431 363.646 411.717 363.645H411.718L425.243 363.646L425.242 372.261Z" fill="#021F59"/>
<path d="M397.163 365.817L390.295 365.816L387.028 340.172H397.164L397.163 365.817Z" fill="#CB9E90"/>
<path d="M398.914 372.261L376.77 372.261V371.989C376.77 369.776 377.678 367.654 379.295 366.089C380.911 364.525 383.103 363.646 385.389 363.645H385.39L398.915 363.646L398.914 372.261Z" fill="#021F59"/>
<path d="M100.458 371.27V165.296C100.458 164.027 100.979 162.811 101.905 161.914C102.832 161.017 104.088 160.513 105.399 160.513H127.447C128.758 160.513 130.014 161.017 130.941 161.914C131.868 162.811 132.388 164.027 132.388 165.296V371.806L100.458 371.27Z" fill="#D7D8DA"/>
<path d="M173.281 371.915V208.138C173.281 206.869 173.801 205.653 174.728 204.756C175.654 203.859 176.911 203.355 178.222 203.355H200.27C201.58 203.355 202.837 203.859 203.764 204.756C204.69 205.653 205.211 206.869 205.211 208.138V371.562L173.281 371.915Z" fill="#D7D8DA"/>
<path d="M43.8793 177.334C43.5547 177.334 43.2372 177.243 42.9649 177.072C42.6927 176.901 42.4774 176.658 42.3451 176.371C42.2129 176.084 42.1692 175.766 42.2195 175.456C42.2698 175.145 42.4119 174.855 42.6285 174.622L116.351 95.0157L188.904 134.457L261.889 12.7108L336.24 71.9552C336.411 72.0909 336.552 72.2579 336.656 72.4465C336.76 72.6351 336.825 72.8416 336.846 73.0544C336.867 73.2672 336.845 73.4819 336.781 73.6864C336.717 73.8909 336.611 74.0811 336.471 74.2461C336.331 74.4112 336.158 74.5478 335.963 74.6483C335.768 74.7488 335.555 74.8111 335.335 74.8316C335.115 74.8522 334.893 74.8306 334.682 74.7682C334.471 74.7057 334.275 74.6036 334.104 74.4676L262.809 17.6583L190.148 138.865L117.055 99.1301L45.131 176.793C44.9736 176.964 44.7807 177.1 44.5649 177.193C44.3492 177.287 44.1155 177.335 43.8793 177.334Z" fill="#D7D8DA"/>
<path d="M43.5995 190.892C52.2621 190.892 59.2845 184.094 59.2845 175.708C59.2845 167.321 52.2621 160.523 43.5995 160.523C34.937 160.523 27.9146 167.321 27.9146 175.708C27.9146 184.094 34.937 190.892 43.5995 190.892Z" fill="#021F59"/>
<path d="M116.423 112.258C125.085 112.258 132.108 105.459 132.108 97.073C132.108 88.6868 125.085 81.8884 116.423 81.8884C107.76 81.8884 100.738 88.6868 100.738 97.073C100.738 105.459 107.76 112.258 116.423 112.258Z" fill="#2C87BE"/>
<path d="M189.246 151.846C197.909 151.846 204.931 145.048 204.931 136.661C204.931 128.275 197.909 121.477 189.246 121.477C180.583 121.477 173.561 128.275 173.561 136.661C173.561 145.048 180.583 151.846 189.246 151.846Z" fill="#2C87BE"/>
<path d="M262.069 30.3692C270.732 30.3692 277.754 23.5708 277.754 15.1846C277.754 6.79838 270.732 0 262.069 0C253.407 0 246.384 6.79838 246.384 15.1846C246.384 23.5708 253.407 30.3692 262.069 30.3692Z" fill="#021F59"/>
<path d="M402.114 143.459C410.776 143.459 417.799 136.661 417.799 128.275C417.799 119.888 410.776 113.09 402.114 113.09C393.451 113.09 386.429 119.888 386.429 128.275C386.429 136.661 393.451 143.459 402.114 143.459Z" fill="#00274A"/>
<path d="M396.568 246.563C402.438 247.248 417.451 242.063 418.264 249.951C425.991 271.971 425.762 356.382 425.762 356.382L413.998 356.924C413.998 356.924 404.598 289.855 400.153 275.506C397.922 292.946 398.313 359.636 398.313 359.636L387.67 360.178C387.67 360.178 378.123 303.389 378.068 286.721C376.908 274.512 379.753 256.419 378.536 244.616C384.357 246.402 390.483 247.064 396.568 246.563L396.568 246.563Z" fill="#D7D8DA"/>
<path d="M318.927 371.185V133.788C318.927 130.743 321.139 128.275 323.868 128.275H345.917C348.645 128.275 350.857 130.743 350.857 133.788V371.806L318.927 371.185Z" fill="#D7D8DA"/>
<path d="M376.597 182.679C374.243 178.019 371.367 173.624 368.021 169.572C367.322 168.78 366.685 167.939 366.116 167.056C364.912 165.033 364.554 162.657 363.792 160.445C361.663 154.241 356.353 149.257 355.059 142.842C354.588 140.51 350.613 147.287 351.658 150.179C353.524 155.412 353.765 160.955 356.14 166.009C358.515 171.063 361.305 175.911 363.355 181.08C364.52 184.014 365.45 187.045 367.158 189.757C368.867 192.468 371.533 194.74 374.754 195.147C374.733 193.181 375.041 191.225 375.668 189.355C376.368 187.219 377.611 184.702 376.597 182.679Z" fill="#CB9E90"/>
<path d="M411.838 186.194C411.694 182.359 412.312 178.533 413.659 174.924C414.174 173.542 414.779 172.137 414.729 170.667C414.656 169.301 413.983 168.048 413.373 166.812C411.267 162.554 409.788 158.042 408.331 153.541L405.53 145.054C404.617 144.406 409.95 144.181 411.087 145.705C414.807 150.705 417.625 156.448 420.571 161.909C421.323 163.21 421.963 164.569 422.487 165.971C423.207 168.243 423.547 170.612 423.495 172.988C423.495 177.43 422.89 181.855 422.263 186.259C421.865 189.019 421.344 192.023 419.188 193.851C416.947 191.074 414.695 188.363 411.838 186.194Z" fill="#CB9E90"/>
<path d="M397.027 181.8C403.447 181.8 408.651 176.762 408.651 170.547C408.651 164.332 403.447 159.294 397.027 159.294C390.607 159.294 385.403 164.332 385.403 170.547C385.403 176.762 390.607 181.8 397.027 181.8Z" fill="#CB9E90"/>
<path d="M387.578 159.32C387.448 158.979 387.418 158.609 387.493 158.252C387.569 157.895 387.745 157.566 388.004 157.301C388.294 157.079 388.679 156.997 388.99 156.786C389.433 156.426 389.795 155.982 390.054 155.482C390.848 154.407 392.01 153.638 393.334 153.313C394.658 152.987 396.058 153.126 397.286 153.705C399.207 154.679 400.367 156.628 402.075 157.94C402.942 158.62 403.948 159.125 404.821 159.805C406.568 161.266 407.811 163.212 408.38 165.378C408.947 167.53 409.278 169.734 409.367 171.954C409.458 172.619 409.431 173.295 409.288 173.953C409.111 174.504 408.847 175.025 408.506 175.498C406.75 178.074 404.435 180.413 401.535 181.742C398.635 183.071 395.107 183.287 392.247 181.896C391.959 181.783 391.711 181.592 391.534 181.345C391.372 180.969 391.333 180.553 391.423 180.155C391.578 178.581 391.256 176.997 390.497 175.596C389.964 174.566 389.166 173.68 388.741 172.614C388.345 171.42 388.175 170.167 388.24 168.915C388.19 165.672 388.417 162.442 387.578 159.32Z" fill="#150501"/>
<path d="M27.6343 371.508V256.896C27.6343 255.426 29.8464 254.234 32.575 254.234H54.6236C57.3523 254.234 59.5644 255.427 59.5644 256.896V371.806L27.6343 371.508Z" fill="#D7D8DA"/>
<path d="M459.44 373H0.560178C0.411609 373 0.269125 372.943 0.164072 372.841C0.0590181 372.739 0 372.602 0 372.458C0 372.314 0.0590181 372.176 0.164072 372.074C0.269125 371.973 0.411609 371.915 0.560178 371.915H459.44C459.588 371.915 459.731 371.973 459.836 372.074C459.941 372.176 460 372.314 460 372.458C460 372.602 459.941 372.739 459.836 372.841C459.731 372.943 459.588 373 459.44 373H459.44Z" fill="#2C87BE"/>
<path d="M246.104 371.104V101.702C246.104 98.2471 248.316 95.4461 251.044 95.4461H273.093C275.822 95.4461 278.034 98.2471 278.034 101.702V371.806L246.104 371.104Z" fill="#00274A"/>
<path d="M351.334 148.79C354.118 148.79 356.375 146.605 356.375 143.91C356.375 141.214 354.118 139.029 351.334 139.029C348.549 139.029 346.292 141.214 346.292 143.91C346.292 146.605 348.549 148.79 351.334 148.79Z" fill="#CB9E90"/>
<path d="M407.351 146.621C410.136 146.621 412.393 144.436 412.393 141.74C412.393 139.045 410.136 136.86 407.351 136.86C404.567 136.86 402.31 139.045 402.31 141.74C402.31 144.436 404.567 146.621 407.351 146.621Z" fill="#CB9E90"/>
<path d="M419.602 202.159C420.094 201.723 424.105 179.017 424.081 178.505C424.019 175.708 415.202 172.513 413.438 173.624C411.773 174.673 408.874 186.707 407.009 188.899L405.035 185.555H389.35L388.4 187.264C386.341 186.064 384.49 184.957 383.83 184.591C383.603 184.442 383.356 184.325 383.095 184.241C381.465 183.888 379.935 183.192 378.614 182.202C377.325 181.242 371.346 171.189 369.744 171.455C367.935 171.748 361.832 176.857 361.901 181.759C362.67 181.743 372.665 201.091 372.805 201.812C373.572 204.86 376.106 249.307 376.924 251.379C380.692 251.026 377.718 250.397 381.364 251.379C385.291 252.436 389.436 251.292 393.487 250.869C395.173 250.708 396.867 250.635 398.562 250.652C404.724 250.679 413.518 251.01 419.484 252.491C419.518 248.705 416.084 240.517 414.813 236.943C414.646 235.875 414.652 234.788 414.829 233.721C414.992 232.414 418.272 203.604 419.602 202.159Z" fill="#2C87BE"/>
</g>
<defs>
<clipPath id="clip0_380_43">
<rect width="460" height="373" fill="white"/>
</clipPath>
</defs>
</svg>
