<svg width="152" height="151" viewBox="0 0 152 151" fill="none" xmlns="http://www.w3.org/2000/svg">
<path d="M25.4948 40.7473C32.5561 36.8309 41.3444 37.6169 48.9526 40.2945C56.5608 42.9722 63.4553 47.3589 70.8435 50.6035C93.4207 60.5184 120.632 58.9196 141.917 46.4278C143.93 51.1528 141.77 56.5574 139.398 61.1096C137.026 65.6618 134.322 70.5956 135.299 75.6435C136.548 82.1031 143.26 85.9759 145.979 91.958C148.561 97.6367 147.175 104.305 145.195 110.225C143.214 116.144 140.644 122.108 140.981 128.346C141.317 134.585 145.809 141.182 152 141.186C142.825 142.625 133.469 144.065 124.299 142.59C115.13 141.116 106.008 136.222 101.751 127.895C99.6226 123.733 98.8022 118.948 96.3583 114.967C92.1955 108.185 84.2066 104.996 76.6688 102.592C69.1311 100.189 61.0645 97.8737 55.7573 91.9616C50.7006 86.3285 49.0989 78.4815 46.4198 71.3779C41.9076 59.4864 34.0706 49.173 23.8606 41.6905" fill="#021F59"/>
<path d="M33.4673 11.0818C30.9745 9.90531 27.9139 9.5196 25.3774 10.6129C22.841 11.7061 21.1117 14.5084 21.9319 16.9884C22.3038 18.1128 23.1507 19.2186 22.8208 20.3542C22.5668 21.2283 21.6808 21.8054 20.8107 22.2157C19.9406 22.6261 18.9888 22.9711 18.3596 23.6631C17.7303 24.3552 17.5991 25.5466 18.3852 26.0833C18.6441 26.2601 18.9678 26.344 19.2189 26.5303C19.433 26.7067 19.5874 26.9465 19.6607 27.2162C19.734 27.4859 19.7225 27.7721 19.6279 28.0349C19.4186 28.5637 19.0727 29.0254 18.6266 29.3715C17.7342 30.1522 16.5549 31.0458 16.832 32.1542C16.9348 32.4504 17.1065 32.7171 17.3325 32.9316C17.5586 33.1461 17.8323 33.3021 18.1305 33.3864C18.7498 33.5676 19.3923 33.6537 20.0367 33.6417L46.3682 34.4832C47.2375 34.5495 48.1115 34.5 48.9681 34.3359C49.3844 34.2589 49.7806 34.0955 50.1319 33.8561C50.4832 33.6166 50.7821 33.3062 51.0098 32.9443C51.5141 31.9974 51.183 30.8309 50.5603 29.9467C49.9376 29.0625 49.0563 28.365 48.3281 27.553C47.5998 26.741 47.004 25.7275 47.1324 24.6781C47.2352 23.838 47.7812 23.112 48.1732 22.3487C48.5652 21.5854 48.7929 20.6316 48.2852 19.9294C47.5698 18.9399 45.8522 19.0294 45.0387 18.1074C44.4248 17.4116 44.5434 16.4099 44.4823 15.5126C44.3355 13.3543 42.8627 11.316 40.766 10.3695C39.6999 9.90516 38.5403 9.70472 37.3827 9.7847C36.2252 9.86469 35.103 10.2228 34.1088 10.8295L33.4673 11.0818Z" fill="#2F2E41"/>
<path d="M16.4654 145.86L12.3721 144.626L15.1678 128.186L21.2093 130.009L16.4654 145.86Z" fill="#A0616A"/>
<path d="M16.9396 150.279L3.53491 146.313L3.58585 146.146C3.79167 145.472 4.13045 144.844 4.58282 144.298C5.03519 143.752 5.59229 143.3 6.22234 142.966C6.85238 142.632 7.54301 142.424 8.2548 142.353C8.96659 142.282 9.6856 142.35 10.3708 142.552L10.3711 142.552L18.5582 144.975L16.9396 150.279Z" fill="#2F2E41"/>
<path d="M55.6739 145.86L51.4824 145.86L49.4885 129.07L55.6746 129.07L55.6739 145.86Z" fill="#A0616A"/>
<path d="M56.558 150.279L42.4187 150.278V150.084C42.4187 149.297 42.561 148.518 42.8376 147.791C43.1142 147.064 43.5196 146.404 44.0306 145.848C44.5416 145.291 45.1483 144.85 45.816 144.549C46.4838 144.248 47.1994 144.093 47.9221 144.093H47.9225L56.5582 144.093L56.558 150.279Z" fill="#2F2E41"/>
<path d="M49.8258 133.488C49.4523 133.488 49.091 133.353 48.8067 133.107C48.5225 132.861 48.3339 132.521 48.2748 132.146L41.9177 91.9155C41.8755 91.649 41.7489 91.4038 41.5569 91.217C41.3649 91.0302 41.1181 90.912 40.8539 90.8803C40.5897 90.8487 40.3226 90.9054 40.093 91.0418C39.8635 91.1781 39.684 91.3867 39.5819 91.636L23.1119 131.86C22.9585 132.232 22.6728 132.531 22.3117 132.698C21.9505 132.865 21.5406 132.887 21.1637 132.761L15.2149 130.75C14.8444 130.626 14.533 130.366 14.3414 130.021C14.1498 129.676 14.0918 129.272 14.179 128.886L27.6762 68.2953C27.7423 68.0035 27.8876 67.7362 28.0958 67.5238C28.3039 67.3114 28.5665 67.1625 28.8538 67.0937L46.9551 62.8309C47.1776 62.7797 47.4083 62.7775 47.6317 62.8245C47.8551 62.8715 48.0659 62.9667 48.2499 63.1035C60.1691 71.8894 59.1622 100.594 56.9408 131.763C56.9131 132.153 56.745 132.52 56.4685 132.792C56.192 133.065 55.8263 133.225 55.4411 133.242L49.8947 133.487C49.8717 133.488 49.8487 133.488 49.8258 133.488Z" fill="black"/>
<path d="M34.4651 34.5117C39.3458 34.5117 43.3023 30.5552 43.3023 25.6745C43.3023 20.7939 39.3458 16.8373 34.4651 16.8373C29.5845 16.8373 25.6279 20.7939 25.6279 25.6745C25.6279 30.5552 29.5845 34.5117 34.4651 34.5117Z" fill="#A0616A"/>
<path d="M34.6831 70.7442C32.6846 70.7307 30.7138 70.2482 28.9124 69.3314L28.8505 69.3009L28.826 69.2332L21.3585 48.7378L21.2164 45.1767C21.1689 43.9858 21.3572 42.7976 21.7694 41.6885C22.1816 40.5794 22.8084 39.5741 23.6096 38.7372C24.4108 37.9003 25.3686 37.2504 26.4212 36.8294C27.4739 36.4084 28.5981 36.2256 29.7215 36.2927L37.6494 36.7658C39.6973 36.8891 41.6238 37.8345 43.0368 39.4097C44.4498 40.9848 45.243 43.0711 45.255 45.244C45.4609 45.6631 46.9232 48.9398 44.0573 52.0183C43.9503 52.7193 42.9478 60.007 46.7308 64.0145L46.8371 64.127L46.7442 64.2522C46.6839 64.3336 41.8255 70.7432 34.6831 70.7442Z" fill="#2C87BE"/>
<path d="M46.3767 72.2875C46.8681 72.1086 47.3145 71.8237 47.6843 71.4529C48.0542 71.082 48.3386 70.6342 48.5175 70.1411C48.6963 69.648 48.7654 69.1214 48.7197 68.5986C48.674 68.0758 48.5147 67.5694 48.253 67.1151L56.5582 57.4604L50.011 56.6047L43.128 65.9041C42.397 66.3962 41.8712 67.1403 41.6502 67.9956C41.4291 68.8509 41.5282 69.7579 41.9287 70.5447C42.3291 71.3315 43.0031 71.9435 43.8229 72.2647C44.6427 72.586 45.5514 72.594 46.3767 72.2875Z" fill="#A0616A"/>
<path d="M51.1657 64.5582C50.856 64.5582 50.5531 64.4676 50.2944 64.2978L46.217 61.6327C45.8742 61.4095 45.6314 61.0628 45.5393 60.6652C45.4473 60.2675 45.5132 59.8499 45.7233 59.4996L48.6751 54.5571C48.8348 54.2897 48.9359 53.9916 48.9719 53.6825C49.0078 53.3734 48.9777 53.0603 48.8836 52.7636C48.7895 52.4669 48.6334 52.1934 48.4257 51.961C48.218 51.7287 47.9633 51.5428 47.6784 51.4155L39.1983 47.6264C38.1554 47.1546 37.3041 46.3437 36.784 45.3267C36.2639 44.3097 36.1057 43.1469 36.3353 42.0285C36.4939 41.2744 36.8248 40.5669 37.3025 39.961C37.7802 39.3551 38.3916 38.8672 39.0893 38.5353C39.787 38.2033 40.5522 38.0363 41.3253 38.0471C42.0983 38.0579 42.8584 38.2464 43.5465 38.5977L56.4115 45.1677C57.2794 45.611 58.041 46.2359 58.644 46.9997C59.247 47.7635 59.6773 48.6482 59.9054 49.5931C60.1335 50.5381 60.154 51.521 59.9654 52.4746C59.7769 53.4282 59.3839 54.3299 58.8132 55.118L52.4533 63.9007C52.3065 64.1043 52.1131 64.2702 51.8892 64.3845C51.6653 64.4988 51.4173 64.5584 51.1657 64.5582Z" fill="#2C87BE"/>
<path d="M25.1418 24.0072C27.8836 23.7906 30.16 21.0955 29.8749 18.4035C29.8428 19.513 30.2262 20.5955 30.9524 21.445C31.6785 22.2945 32.6967 22.8517 33.8132 23.0107C35.0708 23.147 36.4496 22.7726 37.5443 23.3969C38.7568 24.0884 39.1448 25.7676 40.4079 26.3649C41.6283 26.9419 43.1784 26.1549 43.7814 24.962C44.3844 23.769 44.2364 22.3358 43.8368 21.0628C43.2669 19.2474 42.2293 17.608 40.8248 16.3041C39.4202 15.0001 37.6967 14.0761 35.8217 13.6218C33.9468 13.1674 31.9842 13.1983 30.125 13.7114C28.2658 14.2245 26.5731 15.2023 25.2117 16.5497C24.0588 17.6908 23.1434 19.145 22.995 20.7474C22.8465 22.3497 23.6019 24.0884 25.0643 24.8082L25.1418 24.0072Z" fill="#2F2E41"/>
<path d="M5.32857 0.471377C5.78934 0.709951 6.19006 1.04266 6.50248 1.44607C6.81489 1.84949 7.03141 2.3138 7.1368 2.80628C7.24219 3.29877 7.23387 3.80746 7.11244 4.29653C6.99101 4.7856 6.75944 5.24314 6.434 5.63694L13.2558 15.9536L6.64474 15.8448L1.18019 6.06461C0.527689 5.49562 0.115131 4.71649 0.0207227 3.87486C-0.0736853 3.03324 0.156616 2.18758 0.667959 1.49815C1.1793 0.808709 1.93617 0.323387 2.79516 0.134148C3.65414 -0.0550903 4.55554 0.0649059 5.32857 0.471388V0.471377Z" fill="#A0616A"/>
<path d="M11.1584 8.07851L19.6186 28.476L28.4886 43.8225C28.863 44.4703 29.0883 45.1965 29.1473 45.9462C29.2064 46.6959 29.0977 47.4494 28.8296 48.15C28.5614 48.8505 28.1407 49.4798 27.5993 49.9901C27.0579 50.5005 26.4099 50.8787 25.7043 51.0961C24.5852 51.435 23.3842 51.3543 22.3183 50.8687C21.2524 50.383 20.3919 49.5244 19.8921 48.448L2.79681 11.1764C2.70394 10.9739 2.65441 10.7535 2.6515 10.53C2.6486 10.3064 2.69237 10.0848 2.77994 9.8799C2.8675 9.67497 2.99686 9.49142 3.15936 9.34146C3.32187 9.1915 3.51379 9.07857 3.72239 9.0102L9.26546 7.19335C9.37051 7.15887 9.47882 7.13573 9.58861 7.12432C9.91596 7.09059 10.2453 7.16513 10.5279 7.33694C10.8106 7.50875 11.0316 7.76873 11.1584 8.07851Z" fill="#2C87BE"/>
</svg>
