<svg width="251" height="188" viewBox="0 0 251 188" fill="none" xmlns="http://www.w3.org/2000/svg">
<g clip-path="url(#clip0_380_849)">
<path d="M100.438 38.9869H99.5219V14.2925C99.5219 12.4156 99.1464 10.557 98.4168 8.82298C97.6872 7.08894 96.6178 5.51335 95.2697 4.18617C93.9216 2.85899 92.3211 1.80622 90.5597 1.08795C88.7983 0.369689 86.9104 1.59027e-06 85.0039 0H31.8594C28.009 -7.22617e-06 24.3163 1.50579 21.5936 4.18614C18.8709 6.86649 17.3413 10.5018 17.3413 14.2924V149.768C17.3413 151.645 17.7168 153.503 18.4464 155.237C19.176 156.971 20.2454 158.547 21.5935 159.874C22.9417 161.201 24.5421 162.254 26.3036 162.972C28.065 163.691 29.9528 164.06 31.8594 164.06H85.0038C88.8542 164.06 92.547 162.555 95.2696 159.874C97.9923 157.194 99.5219 153.559 99.5219 149.768V56.5648H100.438V38.9869Z" fill="#0C1D15"/>
<path d="M85.5895 3.71851H78.6524C78.9714 4.48848 79.0932 5.32388 79.007 6.1511C78.9208 6.97833 78.6293 7.77199 78.1581 8.46218C77.6869 9.15236 77.0506 9.71788 76.3051 10.1089C75.5597 10.5 74.728 10.7045 73.8833 10.7046H43.4375C42.5928 10.7045 41.7611 10.5 41.0156 10.1089C40.2702 9.71789 39.6338 9.15237 39.1627 8.46218C38.6915 7.772 38.4 6.97833 38.3138 6.15111C38.2276 5.32389 38.3494 4.48848 38.6684 3.71851H32.1891C30.7653 3.7185 29.3555 3.99458 28.0401 4.53097C26.7247 5.06736 25.5295 5.85356 24.5227 6.84468C23.5159 7.8358 22.7173 9.01243 22.1725 10.3074C21.6276 11.6024 21.3472 12.9903 21.3472 14.3919V149.669C21.3472 151.07 21.6276 152.458 22.1725 153.753C22.7173 155.048 23.5159 156.225 24.5227 157.216C25.5295 158.207 26.7247 158.993 28.0401 159.53C29.3555 160.066 30.7653 160.342 32.1891 160.342H85.5895C87.0133 160.342 88.4231 160.066 89.7385 159.53C91.0539 158.993 92.2491 158.207 93.2559 157.216C94.2627 156.225 95.0613 155.048 95.6061 153.753C96.151 152.458 96.4314 151.07 96.4314 149.669V14.3919C96.4314 12.9903 96.151 11.6024 95.6061 10.3074C95.0613 9.01243 94.2627 7.8358 93.2559 6.84468C92.2491 5.85356 91.0539 5.06736 89.7385 4.53097C88.4231 3.99458 87.0133 3.7185 85.5895 3.71851Z" fill="white"/>
<path d="M117.471 164.084H0.307517C0.225958 164.084 0.14774 164.052 0.0900694 163.995C0.0323988 163.938 0 163.861 0 163.781C0 163.701 0.0323988 163.624 0.0900694 163.567C0.14774 163.51 0.225958 163.478 0.307517 163.478H117.471C117.553 163.478 117.631 163.51 117.689 163.567C117.747 163.624 117.779 163.701 117.779 163.781C117.779 163.861 117.747 163.938 117.689 163.995C117.631 164.052 117.553 164.084 117.471 164.084Z" fill="#CBCBCB"/>
<path d="M58.8895 104.65C73.2316 104.65 84.8582 93.2045 84.8582 79.0853C84.8582 64.9661 73.2316 53.5203 58.8895 53.5203C44.5475 53.5203 32.9209 64.9661 32.9209 79.0853C32.9209 93.2045 44.5475 104.65 58.8895 104.65Z" fill="#19403C"/>
<path d="M56.3162 88.8375C55.732 88.8384 55.1633 88.6524 54.6959 88.3073L54.6669 88.2859L48.564 83.6899C48.2813 83.4766 48.0441 83.2105 47.8659 82.907C47.6877 82.6034 47.5719 82.2682 47.5253 81.9206C47.4787 81.573 47.502 81.2198 47.5941 80.8811C47.6861 80.5423 47.845 80.2248 48.0617 79.9465C48.2784 79.6683 48.5486 79.4348 48.857 79.2593C49.1654 79.0839 49.5058 78.9699 49.8589 78.924C50.212 78.8781 50.5708 78.9011 50.9149 78.9917C51.259 79.0823 51.5815 79.2387 51.8642 79.4521L55.8172 82.4363L65.1584 70.4391C65.375 70.161 65.6451 69.9275 65.9534 69.7522C66.2616 69.5768 66.6019 69.4629 66.9549 69.417C67.3078 69.3711 67.6665 69.3941 68.0104 69.4847C68.3543 69.5753 68.6768 69.7316 68.9593 69.9449L68.9601 69.9454L68.9021 70.0247L68.9617 69.9454C69.5317 70.3767 69.9046 71.013 69.9986 71.7146C70.0926 72.4163 69.9 73.126 69.4631 73.688L58.4758 87.7931C58.2216 88.1181 57.8948 88.3811 57.5207 88.5616C57.1466 88.7422 56.7353 88.8355 56.3186 88.8343L56.3162 88.8375Z" fill="white"/>
<path d="M213.492 166.597C213.808 166.094 214.18 165.627 214.601 165.205C214.775 165.028 214.958 164.861 215.147 164.699C216.295 163.693 217.694 163.006 219.202 162.709C220.709 162.412 222.269 162.515 223.722 163.009C225.176 163.502 226.469 164.368 227.47 165.517C228.47 166.665 229.142 168.056 229.416 169.545C230.684 164.927 227.383 160.379 224.063 156.886C220.742 153.393 216.946 149.562 216.965 144.777C216.975 142.114 218.298 139.738 220.296 137.977C220.357 137.924 220.419 137.87 220.482 137.819C222.896 135.781 226.003 134.716 229.181 134.834C235.085 135.146 240.24 139.052 243.82 143.686C249.583 151.141 252.108 161.607 248.073 170.094C244.525 177.558 236.957 181.991 229.233 185.554C228.155 186.052 227.079 186.535 226.004 187.002C225.997 187.004 225.989 187.009 225.982 187.011C225.931 187.033 225.879 187.056 225.83 187.079C225.609 187.175 225.387 187.272 225.167 187.367L225.269 187.432L225.587 187.635C225.476 187.569 225.367 187.505 225.257 187.44C225.225 187.42 225.19 187.401 225.157 187.381C221.364 185.14 217.518 182.77 214.897 179.271C212.179 175.639 211.086 170.436 213.492 166.597Z" fill="#19403C"/>
<path d="M238.802 158.161C239.642 160.042 240.199 162.034 240.455 164.073C240.656 165.892 240.581 167.73 240.23 169.526C239.477 173.218 237.834 176.678 235.44 179.614C233.633 181.844 231.548 183.84 229.233 185.554C228.155 186.052 227.079 186.535 226.004 187.002C225.997 187.004 225.99 187.009 225.982 187.011C225.931 187.033 225.879 187.056 225.83 187.079C225.609 187.175 225.387 187.271 225.167 187.366L225.269 187.432L225.587 187.634C225.476 187.569 225.368 187.505 225.257 187.439C225.225 187.419 225.19 187.401 225.157 187.381C225.992 184.506 226.115 181.476 225.515 178.545C224.916 175.614 223.611 172.867 221.711 170.535C219.801 168.231 217.364 166.405 214.601 165.205C214.775 165.028 214.958 164.861 215.147 164.698C216.211 165.18 217.23 165.753 218.192 166.41C221.632 168.751 224.216 172.12 225.56 176.019C226.76 179.556 226.909 183.357 225.992 186.975C226.182 186.852 226.373 186.727 226.559 186.601C230.093 184.255 233.35 181.438 235.803 177.982C237.919 175.062 239.273 171.674 239.746 168.118C240.216 164.232 239.229 160.412 237.467 156.945C235.521 153.236 233.069 149.807 230.18 146.752C227.278 143.613 223.996 140.835 220.408 138.48C220.327 138.427 220.271 138.344 220.25 138.251C220.229 138.157 220.245 138.059 220.296 137.977C220.334 137.902 220.401 137.845 220.482 137.819C220.523 137.808 220.566 137.807 220.607 137.816C220.649 137.824 220.688 137.841 220.722 137.866C221.164 138.157 221.604 138.451 222.037 138.753C225.65 141.272 228.932 144.222 231.806 147.537C234.583 150.733 237.11 154.283 238.802 158.161Z" fill="white"/>
<path d="M161.459 11.8706C164.505 11.8706 166.974 9.4398 166.974 6.44128C166.974 3.44275 164.505 1.01196 161.459 1.01196C158.414 1.01196 155.944 3.44275 155.944 6.44128C155.944 9.4398 158.414 11.8706 161.459 11.8706Z" fill="#F1F1F1"/>
<path d="M230.035 84.5275C231.892 84.5275 233.398 83.0455 233.398 81.2174C233.398 79.3892 231.892 77.9072 230.035 77.9072C228.178 77.9072 226.673 79.3892 226.673 81.2174C226.673 83.0455 228.178 84.5275 230.035 84.5275Z" fill="#F1F1F1"/>
<path d="M131.63 93.6096C133.487 93.6096 134.992 92.1276 134.992 90.2994C134.992 88.4713 133.487 86.9893 131.63 86.9893C129.773 86.9893 128.268 88.4713 128.268 90.2994C128.268 92.1276 129.773 93.6096 131.63 93.6096Z" fill="#F1F1F1"/>
<path d="M133.529 188H250.693C250.774 188 250.852 187.968 250.91 187.911C250.968 187.855 251 187.778 251 187.697C251 187.617 250.968 187.54 250.91 187.483C250.852 187.426 250.774 187.395 250.693 187.395H133.529C133.447 187.395 133.369 187.426 133.311 187.483C133.254 187.54 133.221 187.617 133.221 187.697C133.221 187.778 133.254 187.855 133.311 187.911C133.369 187.968 133.447 188 133.529 188Z" fill="#CBCBCB"/>
<path d="M237.763 29.2551C237.916 28.1798 237.664 27.0863 237.054 26.1818C236.443 25.2773 235.517 24.6247 234.451 24.3476C233.384 24.0704 232.251 24.1881 231.267 24.6782C230.283 25.1684 229.515 25.9969 229.11 27.0069L219.603 37.7372L222.392 45.4076L231.954 32.8696C232.578 33.0664 233.238 33.1261 233.888 33.0445C234.538 32.9629 235.162 32.742 235.715 32.3974C236.269 32.0528 236.74 31.5928 237.093 31.0499C237.447 30.507 237.675 29.8943 237.763 29.2551Z" fill="#FFB7B7"/>
<path d="M198.353 71.0067L229.913 37.8482L225.656 31.1855L186.071 64.1428L198.353 71.0067Z" fill="#0C1D15"/>
<path d="M191.308 50.8598C197.423 50.8598 202.379 45.9804 202.379 39.9613C202.379 33.9422 197.423 29.0627 191.308 29.0627C185.194 29.0627 180.238 33.9422 180.238 39.9613C180.238 45.9804 185.194 50.8598 191.308 50.8598Z" fill="black"/>
<path d="M192.199 33.8045C194.581 31.4264 197.464 29.5912 200.644 28.4281C202.686 27.6836 204.908 27.2236 207.042 27.6464C209.176 28.0692 211.195 29.5228 211.79 31.5843C212.277 33.2701 211.774 35.0851 211.019 36.672C210.263 38.2589 209.254 39.7304 208.643 41.3765C208.02 43.0561 207.832 44.8624 208.098 46.6314C208.363 48.4005 209.073 50.0762 210.164 51.5065C211.254 52.9369 212.69 54.0765 214.341 54.822C215.992 55.5675 217.806 55.8952 219.618 55.7754C217.521 56.0522 215.588 57.0224 213.538 57.5388C211.489 58.0552 209.069 58.0202 207.546 56.5745C205.934 55.045 205.902 52.558 205.98 50.3555C206.096 47.0814 206.212 43.8073 206.328 40.5332C206.387 38.8635 206.437 37.1403 205.825 35.5818C205.214 34.0233 203.76 32.6587 202.063 32.6728C200.777 32.6836 199.638 33.4507 198.607 34.2071C197.575 34.9636 196.484 35.7707 195.203 35.8832C193.921 35.9957 192.459 35.0623 192.554 33.7996L192.199 33.8045Z" fill="black"/>
<path d="M149.262 113.14C148.199 113.431 147.065 113.327 146.074 112.85C145.083 112.372 144.305 111.554 143.887 110.549C143.468 109.544 143.439 108.423 143.804 107.398C144.169 106.374 144.903 105.516 145.867 104.989L155.431 94.3071L163.52 96.0276L152.143 106.998C152.422 107.581 152.569 108.218 152.572 108.863C152.574 109.508 152.433 110.146 152.159 110.731C151.884 111.317 151.482 111.836 150.982 112.252C150.481 112.668 149.894 112.971 149.262 113.14H149.262Z" fill="#FFB7B7"/>
<path d="M180.727 74.8987L156.89 104.355L149.624 101.071L177.642 58.1292L180.727 74.8987Z" fill="#0C1D15"/>
<path d="M161.707 163.845L156.026 163.757L156.709 182.819H161.706L161.707 163.845Z" fill="#FFB7B7"/>
<path d="M162.981 181.213L153.14 181.213H153.14C151.476 181.213 149.881 181.863 148.705 183.021C147.529 184.179 146.868 185.749 146.868 187.387V187.587L162.981 187.588L162.981 181.213Z" fill="black"/>
<path d="M199.322 158.789L193.116 162.711L205.53 177.414L209.735 174.756L199.322 158.789Z" fill="#FFB7B7"/>
<path d="M209.926 172.727L201.645 177.96L201.644 177.961C200.245 178.845 199.259 180.241 198.905 181.841C198.551 183.441 198.857 185.114 199.755 186.492L199.865 186.66L213.424 178.091L209.926 172.727Z" fill="black"/>
<path d="M201.533 100.582C201.533 100.582 187.744 55.4956 183.313 54.8864C178.881 54.2771 171.741 66.4549 171.741 66.4549C162.484 78.0825 152.938 115.747 152.938 115.747C152.938 115.747 168.851 116.727 180.484 122.82C192.116 128.913 205.844 122.511 205.844 122.511L201.533 100.582Z" fill="#0C1D15"/>
<path opacity="0.1" d="M201.533 100.582C201.533 100.582 187.744 55.4957 183.313 54.8864C178.881 54.2771 173.555 66.5785 173.555 66.5785C168.942 85.3482 152.938 115.747 152.938 115.747C152.938 115.747 168.851 116.727 180.484 122.82C192.116 128.913 205.844 122.511 205.844 122.511L201.533 100.582Z" fill="black"/>
<path d="M190.22 87.0922V109.748L192.928 142.566L206.459 167.39L200.001 171.931L181.55 148.318L174.252 124.871L162.792 176.775L154.181 176.169L160.161 104.205L171.509 83.9492L190.22 87.0922Z" fill="black"/>
<path d="M176.317 65.1793C172.012 69.4176 176.01 73.9587 176.01 73.9587L171.089 84.8572L190.463 90.0038L197.233 60.221L192.621 55.3772C183.395 55.0745 183.39 54.8862 183.39 54.8862C181.774 56.4435 176.317 65.1793 176.317 65.1793Z" fill="#235959"/>
<path d="M198.013 57.1354C197.134 56.496 196.134 56.0348 195.071 55.7785C194.009 55.5223 192.906 55.4761 191.825 55.6426C190.745 55.8091 189.709 56.185 188.777 56.7485C187.845 57.312 187.036 58.052 186.396 58.9255C181.526 65.6015 177.022 76.3817 183.227 89.8265C193.191 111.415 201.861 122.466 205.386 122.465C205.54 122.466 205.693 122.442 205.839 122.395C208.008 121.67 211.145 118.056 211.713 114.871C211.916 113.731 211.868 112.143 210.483 111.053C206.505 107.92 199.364 98.1677 197.136 85.3309C195.905 78.2379 198.293 71.7768 200.512 67.6057C201.45 65.8798 201.724 63.8791 201.285 61.9703C200.845 60.0616 199.722 58.3726 198.121 57.213L198.013 57.1354Z" fill="#0C1D15"/>
<path d="M191.878 49.7891C195.827 47.6639 197.279 42.7894 195.12 38.9016C192.961 35.0138 188.009 33.585 184.06 35.7102C180.111 37.8355 178.66 42.71 180.819 46.5978C182.977 50.4856 187.929 51.9144 191.878 49.7891Z" fill="#FFB7B7"/>
<path d="M176.508 42.1432H188.276L188.396 40.48L189 42.1432H190.812L191.051 38.8468L192.246 42.1432H195.752V41.9799C195.75 39.685 194.823 37.4848 193.174 35.8621C191.526 34.2394 189.291 33.3266 186.96 33.324H185.301C182.97 33.3266 180.735 34.2394 179.086 35.8621C177.438 37.4848 176.511 39.685 176.508 41.9799V42.1432Z" fill="black"/>
<path d="M193.975 48.1213L198.996 46.5172V34.512H189.511L189.746 34.7428C193.013 37.9551 196.647 49.352 193.975 48.1213Z" fill="black"/>
</g>
<defs>
<clipPath id="clip0_380_849">
<rect width="251" height="188" fill="white"/>
</clipPath>
</defs>
</svg>
