<svg width="208" height="165" viewBox="0 0 208 165" fill="none" xmlns="http://www.w3.org/2000/svg">
<g clip-path="url(#clip0_380_320)">
<path d="M176.601 165H167.806C167.676 164.746 167.554 164.486 167.442 164.223C166.43 161.898 166.003 159.302 165.593 156.759L164.93 152.629C167.051 154.285 169.172 155.939 171.291 157.592C171.982 158.132 172.688 158.694 173.352 159.302C174.749 160.574 175.955 162.044 176.428 163.911C176.452 164.015 176.477 164.119 176.495 164.223C176.545 164.479 176.581 164.739 176.601 165Z" fill="#F0F0F0"/>
<path d="M177.834 164.223C177.835 164.239 177.834 164.255 177.831 164.272C177.802 164.52 177.747 164.764 177.668 165H173.719C173.594 164.75 173.489 164.49 173.404 164.223C173.284 163.865 173.197 163.496 173.146 163.12C173.015 161.844 173.084 160.554 173.352 159.302C173.428 158.896 173.51 158.486 173.591 158.083L174.058 155.781L176.395 159.81C177.177 161.159 177.989 162.646 177.834 164.223Z" fill="#F0F0F0"/>
<path d="M207.699 11.887H0.300971C0.22054 11.8851 0.144007 11.8494 0.0877542 11.7877C0.0315017 11.726 0 11.6431 0 11.5568C0 11.4705 0.0315017 11.3876 0.0877542 11.3259C0.144007 11.2641 0.22054 11.2285 0.300971 11.2266H207.699C207.779 11.2285 207.856 11.2641 207.912 11.3259C207.968 11.3876 208 11.4705 208 11.5568C208 11.6431 207.968 11.726 207.912 11.7877C207.856 11.8494 207.779 11.8851 207.699 11.887Z" fill="#BABABA"/>
<path d="M7.07628 7.26426C8.90497 7.26426 10.3874 5.6381 10.3874 3.63213C10.3874 1.62616 8.90497 0 7.07628 0C5.24759 0 3.76514 1.62616 3.76514 3.63213C3.76514 5.6381 5.24759 7.26426 7.07628 7.26426Z" fill="#19403C"/>
<path d="M18.5148 7.26426C20.3435 7.26426 21.8259 5.6381 21.8259 3.63213C21.8259 1.62616 20.3435 0 18.5148 0C16.6861 0 15.2036 1.62616 15.2036 3.63213C15.2036 5.6381 16.6861 7.26426 18.5148 7.26426Z" fill="#19403C"/>
<path d="M29.9532 7.26426C31.7819 7.26426 33.2644 5.6381 33.2644 3.63213C33.2644 1.62616 31.7819 0 29.9532 0C28.1245 0 26.6421 1.62616 26.6421 3.63213C26.6421 5.6381 28.1245 7.26426 29.9532 7.26426Z" fill="#19403C"/>
<path d="M200.846 2.22166H192.718C192.557 2.21785 192.404 2.1466 192.292 2.02317C192.179 1.89973 192.116 1.73393 192.116 1.56127C192.116 1.38861 192.179 1.2228 192.292 1.09937C192.404 0.97594 192.557 0.904691 192.718 0.900879H200.846C201.006 0.904691 201.16 0.97594 201.272 1.09937C201.385 1.2228 201.448 1.38861 201.448 1.56127C201.448 1.73393 201.385 1.89973 201.272 2.02317C201.16 2.1466 201.006 2.21785 200.846 2.22166Z" fill="#19403C"/>
<path d="M200.846 4.69812H192.718C192.557 4.69431 192.404 4.62306 192.292 4.49963C192.179 4.3762 192.116 4.2104 192.116 4.03773C192.116 3.86507 192.179 3.69927 192.292 3.57584C192.404 3.45241 192.557 3.38116 192.718 3.37735H200.846C201.006 3.38116 201.16 3.45241 201.272 3.57584C201.385 3.69927 201.448 3.86507 201.448 4.03773C201.448 4.2104 201.385 4.3762 201.272 4.49963C201.16 4.62306 201.006 4.69431 200.846 4.69812Z" fill="#19403C"/>
<path d="M200.846 7.17457H192.718C192.557 7.17075 192.404 7.0995 192.292 6.97607C192.179 6.85264 192.116 6.68684 192.116 6.51418C192.116 6.34151 192.179 6.17571 192.292 6.05228C192.404 5.92885 192.557 5.8576 192.718 5.85379H200.846C201.006 5.8576 201.16 5.92885 201.272 6.05228C201.385 6.17571 201.448 6.34151 201.448 6.51418C201.448 6.68684 201.385 6.85264 201.272 6.97607C201.16 7.0995 201.006 7.17075 200.846 7.17457Z" fill="#19403C"/>
<path d="M182.541 134.447H25.069C23.4053 134.445 21.8102 133.735 20.6338 132.472C19.4573 131.21 18.7956 129.498 18.7937 127.713V43.6194C18.7956 41.8342 19.4574 40.1227 20.6338 38.8603C21.8102 37.598 23.4053 36.8879 25.069 36.8859H182.541C184.204 36.8879 185.799 37.598 186.976 38.8603C188.152 40.1227 188.814 41.8342 188.816 43.6194V127.713C188.814 129.498 188.152 131.21 186.976 132.472C185.8 133.735 184.204 134.445 182.541 134.447Z" fill="#2C87BE"/>
<path d="M194.406 147.164H36.9342C35.2705 147.162 33.6754 146.452 32.499 145.189C31.3226 143.927 30.6608 142.216 30.6589 140.43V56.3366C30.6608 54.5514 31.3226 52.8398 32.499 51.5775C33.6755 50.3152 35.2705 49.6051 36.9342 49.6031H194.406C196.07 49.6051 197.665 50.3152 198.841 51.5775C200.018 52.8398 200.679 54.5514 200.681 56.3366V140.43C200.679 142.216 200.018 143.927 198.841 145.189C197.665 146.452 196.07 147.162 194.406 147.164Z" fill="white"/>
<path d="M194.406 147.164H36.9342C35.2705 147.162 33.6754 146.452 32.499 145.189C31.3226 143.927 30.6608 142.216 30.6589 140.43V56.3366C30.6608 54.5514 31.3226 52.8398 32.499 51.5775C33.6755 50.3152 35.2705 49.6051 36.9342 49.6031H194.406C196.07 49.6051 197.665 50.3152 198.841 51.5775C200.018 52.8398 200.679 54.5514 200.681 56.3366V140.43C200.679 142.216 200.018 143.927 198.841 145.189C197.665 146.452 196.07 147.162 194.406 147.164ZM36.9342 50.5787C35.5116 50.5804 34.1476 51.1876 33.1416 52.267C32.1357 53.3465 31.5698 54.81 31.5681 56.3366V140.43C31.5697 141.957 32.1356 143.42 33.1416 144.5C34.1476 145.579 35.5116 146.187 36.9342 146.188H194.406C195.829 146.187 197.193 145.579 198.199 144.5C199.205 143.42 199.77 141.957 199.772 140.43V56.3366C199.77 54.81 199.205 53.3465 198.199 52.2671C197.193 51.1876 195.829 50.5804 194.406 50.5787H36.9342Z" fill="#E4E4E4"/>
<path d="M49.0269 132.441H174.947V109.283C174.927 106.841 174.454 104.428 173.554 102.185C172.654 99.9417 171.345 97.9143 169.705 96.2214L169.671 96.1855C167.422 93.7641 159.906 87.6188 152.129 88.1398C148.021 88.4142 144.504 90.5386 141.676 94.4539C132.873 106.646 121.309 102.53 115.199 98.9921C109.815 95.8733 104.316 94.4095 98.8548 94.6424C91.2059 94.9634 80.4399 97.987 72.5884 110.569C69.5896 115.371 63.068 121.889 49.0269 125.719L49.0269 132.441Z" fill="#021F59"/>
<path d="M182.071 132.98H49.2691C49.1589 132.98 49.0532 132.933 48.9753 132.849C48.8973 132.765 48.8535 132.652 48.8535 132.534V64.2333C48.8535 64.115 48.8973 64.0016 48.9752 63.918C49.0532 63.8343 49.1589 63.7874 49.2691 63.7874C49.3794 63.7874 49.4851 63.8343 49.563 63.918C49.6409 64.0016 49.6847 64.115 49.6847 64.2333V132.088H182.071C182.181 132.088 182.287 132.135 182.365 132.218C182.443 132.302 182.487 132.415 182.487 132.534C182.487 132.652 182.443 132.765 182.365 132.849C182.287 132.933 182.181 132.98 182.071 132.98Z" fill="#19403C"/>
<path d="M98.5772 98.0197C99.9544 98.0197 101.071 96.8217 101.071 95.344C101.071 93.8662 99.9544 92.6682 98.5772 92.6682C97.1999 92.6682 96.0835 93.8662 96.0835 95.344C96.0835 96.8217 97.1999 98.0197 98.5772 98.0197Z" fill="#19403C"/>
<path d="M147.486 91.0223C148.863 91.0223 149.979 89.8244 149.979 88.3466C149.979 86.8688 148.863 85.6708 147.486 85.6708C146.109 85.6708 144.992 86.8688 144.992 88.3466C144.992 89.8244 146.109 91.0223 147.486 91.0223Z" fill="#19403C"/>
<path d="M123.031 105.454C124.408 105.454 125.525 104.256 125.525 102.779C125.525 101.301 124.408 100.103 123.031 100.103C121.654 100.103 120.538 101.301 120.538 102.779C120.538 104.256 121.654 105.454 123.031 105.454Z" fill="#19403C"/>
<path d="M74.1228 109.39C75.5 109.39 76.6165 108.192 76.6165 106.715C76.6165 105.237 75.5 104.039 74.1228 104.039C72.7456 104.039 71.6292 105.237 71.6292 106.715C71.6292 108.192 72.7456 109.39 74.1228 109.39Z" fill="#19403C"/>
<path d="M171.94 100.644C173.317 100.644 174.434 99.4457 174.434 97.968C174.434 96.4902 173.317 95.2922 171.94 95.2922C170.563 95.2922 169.446 96.4902 169.446 97.968C169.446 99.4457 170.563 100.644 171.94 100.644Z" fill="#19403C"/>
<path d="M200.828 106.385C200.553 106.1 200.339 105.754 200.202 105.371C200.065 104.988 200.007 104.578 200.034 104.169C200.061 103.759 200.171 103.361 200.356 103.003C200.541 102.644 200.798 102.333 201.107 102.092L198.419 92.5469L203.047 94.0261L204.891 102.864C205.233 103.449 205.364 104.148 205.258 104.829C205.153 105.51 204.818 106.126 204.317 106.56C203.816 106.994 203.185 107.216 202.542 107.184C201.899 107.151 201.289 106.867 200.828 106.385Z" fill="#9E616A"/>
<path d="M157.188 49.6221C157.139 50.029 157.174 50.4424 157.29 50.8333C157.406 51.2242 157.6 51.5831 157.859 51.8847C158.118 52.1862 158.436 52.4231 158.79 52.5787C159.144 52.7343 159.525 52.8048 159.907 52.7852L163.369 62.0388L166.12 57.7796L162.41 49.6451C162.337 48.959 162.031 48.3254 161.552 47.8646C161.073 47.4038 160.452 47.1477 159.809 47.1449C159.165 47.1421 158.543 47.3927 158.06 47.8492C157.577 48.3058 157.267 48.9366 157.188 49.6221Z" fill="#9E616A"/>
<path d="M196.229 160.914H193.041L191.524 147.719L196.23 147.719L196.229 160.914Z" fill="#9E616A"/>
<path d="M197.043 164.231L186.762 164.23V164.091C186.762 162.952 187.184 161.86 187.934 161.055C188.685 160.25 189.702 159.797 190.764 159.797H190.764L197.043 159.797L197.043 164.231Z" fill="black"/>
<path d="M185.796 160.806L182.757 159.773L185.022 146.701L189.508 148.226L185.796 160.806Z" fill="#9E616A"/>
<path d="M185.639 164.231L175.838 160.901L175.877 160.768C176.197 159.683 176.907 158.778 177.848 158.253C178.79 157.729 179.888 157.627 180.9 157.971L180.9 157.971L186.886 160.004L185.639 164.231Z" fill="black"/>
<path d="M182.02 96.4214C182.02 96.4214 177.29 104.392 178.961 111.505C180.633 118.619 182.453 132.292 182.453 132.292L191.517 155.438L198.273 155.142L191.564 127.853L191.829 109.607C191.829 109.607 196.492 100.887 195.584 98.1722C194.676 95.4577 182.02 96.4214 182.02 96.4214Z" fill="black"/>
<path d="M197.475 99.2711C197.475 99.2711 198.057 107.178 196.237 110.526C194.416 113.875 192.477 126.62 192.477 126.62L189.383 152.11L182.974 149.873L188.439 121.314L192.734 98.8492L197.475 99.2711Z" fill="black"/>
<path d="M199.747 60.9951L194.747 57.307L187.138 57.0698L184.488 59.8575L180.444 62.0733L180.069 98.1723C180.069 98.1723 192.179 104.4 198.694 101.394L201.828 73.2733C203.128 67.6923 199.747 60.9951 199.747 60.9951Z" fill="#19403C"/>
<path d="M181.459 71.7201H168.121L159.358 55.5347L165.056 53.1129L169.882 62.3237L176.866 61.6454L181.227 61.4191C181.926 61.3829 182.624 61.5109 183.272 61.7942C183.92 62.0776 184.502 62.5094 184.978 63.0595C185.455 63.6096 185.813 64.2647 186.029 64.979C186.244 65.6932 186.312 66.4494 186.226 67.1946C186.082 68.4427 185.518 69.5914 184.641 70.4248C183.763 71.2582 182.631 71.7188 181.459 71.7201Z" fill="#19403C"/>
<path d="M191.563 54.0971C195.206 54.0971 198.16 50.9275 198.16 47.0176C198.16 43.1077 195.206 39.9381 191.563 39.9381C187.919 39.9381 184.965 43.1077 184.965 47.0176C184.965 50.9275 187.919 54.0971 191.563 54.0971Z" fill="#9E616A"/>
<path d="M199.512 45.4069C199.31 43.8526 198.329 42.3769 196.933 41.906C196.379 40.1791 194.911 38.9077 193.289 38.3535C191.787 37.8396 190.169 37.8753 188.688 38.4549C187.207 39.0345 185.947 40.1252 185.106 41.556C184.982 41.7654 184.6 42.2799 184.611 42.5298C184.625 42.8471 185.077 43.1748 185.304 43.3749C185.868 43.8421 186.475 44.2445 187.117 44.5755C189.49 45.8953 188.7 47.9694 188.668 50.3198C188.652 51.462 189.007 52.4372 189.915 53.0896C191.225 54.0312 193.1 53.6566 194.525 53.2787C196.142 52.8499 197.487 51.3254 198.409 49.8554C199.226 48.5536 199.715 46.9611 199.512 45.4069Z" fill="black"/>
<path d="M199.447 70.0734L205.041 99.8155L196.793 100.3L199.447 70.0734Z" fill="#19403C"/>
<path d="M205.223 164.61C205.223 164.661 205.214 164.711 205.196 164.759C205.178 164.806 205.151 164.849 205.118 164.885C205.084 164.921 205.045 164.95 205.001 164.97C204.957 164.99 204.91 165 204.862 165H162.038C161.942 165 161.85 164.959 161.782 164.886C161.714 164.813 161.676 164.714 161.676 164.611C161.676 164.508 161.714 164.409 161.782 164.337C161.85 164.264 161.942 164.223 162.038 164.223H204.862C204.958 164.223 205.049 164.264 205.117 164.336C205.185 164.409 205.223 164.507 205.223 164.61Z" fill="#BABABA"/>
</g>
<defs>
<clipPath id="clip0_380_320">
<rect width="208" height="165" fill="white"/>
</clipPath>
</defs>
</svg>
